<svg xmlns="http://www.w3.org/2000/svg" xmlns:xlink="http://www.w3.org/1999/xlink" width="200" zoomAndPan="magnify" viewBox="0 0 150 30.000001" height="40" preserveAspectRatio="xMidYMid meet" version="1.0"><defs><g/><clipPath id="884b537f7a"><path d="M 70 16 L 83 16 L 83 29.03125 L 70 29.03125 Z M 70 16 " clip-rule="nonzero"/></clipPath><clipPath id="0b1c5e5115"><path d="M 5.660156 0 L 23 0 L 23 18 L 5.660156 18 Z M 5.660156 0 " clip-rule="nonzero"/></clipPath><clipPath id="b252be4a36"><path d="M 20 6 L 31.789062 6 L 31.789062 18 L 20 18 Z M 20 6 " clip-rule="nonzero"/></clipPath><clipPath id="f65aa17b52"><path d="M 10 14 L 26 14 L 26 29.03125 L 10 29.03125 Z M 10 14 " clip-rule="nonzero"/></clipPath></defs><g fill="#000000" fill-opacity="1"><g transform="translate(32.692873, 13.097121)"><g><path d="M 2.34375 0.488281 C 3.84375 0.371094 5.355469 0.253906 6.855469 0.0585938 C 7.300781 0 8.113281 0.105469 8.054688 -0.578125 C 8.011719 -1.113281 7.269531 -0.90625 6.824219 -0.933594 C 5.191406 -1.023438 3.558594 -0.964844 1.824219 -0.742188 C 1.808594 -2.492188 1.75 -4.167969 1.871094 -5.84375 C 1.972656 -7.269531 2.078125 -8.695312 1.972656 -10.117188 C 1.945312 -10.488281 1.882812 -10.859375 1.453125 -10.902344 C 0.964844 -10.976562 0.785156 -10.59375 0.683594 -10.207031 C 0.519531 -9.597656 0.105469 -4.570312 0.625 -0.890625 C 0.785156 0.3125 1.097656 0.578125 2.34375 0.488281 Z M 2.34375 0.488281 "/></g></g></g><g fill="#000000" fill-opacity="1"><g transform="translate(41.11839, 13.097121)"><g><path d="M 1.097656 0 C 1.957031 -0.03125 1.855469 -1.203125 1.855469 -1.945312 L 1.855469 -4.941406 C 2.03125 -6.839844 2.046875 -8.261719 1.988281 -9.6875 C 1.972656 -10.027344 1.988281 -10.371094 1.78125 -10.679688 C 1.601562 -10.976562 1.230469 -10.976562 1.082031 -10.652344 C 0.578125 -6.734375 0.429688 -4.910156 0.371094 -1.527344 L 0.386719 -0.890625 C 0.414062 -0.429688 0.550781 0.015625 1.097656 0 Z M 1.097656 0 "/></g></g></g><g fill="#000000" fill-opacity="1"><g transform="translate(43.506609, 13.097121)"><g><path d="M 9.554688 -0.28125 C 10.472656 -0.726562 11.039062 -1.453125 11.082031 -2.507812 C 11.125 -3.574219 10.59375 -4.316406 9.6875 -4.808594 C 8.621094 -5.371094 3.277344 -6.972656 2.773438 -7.34375 C 2.136719 -7.816406 2.0625 -8.515625 2.550781 -9.152344 C 3.753906 -10.710938 6.765625 -10.636719 7.921875 -9.035156 C 8.261719 -8.546875 8.664062 -7.773438 9.050781 -7.921875 C 9.359375 -8.054688 9.332031 -8.351562 9.273438 -8.605469 C 9.035156 -9.777344 8.425781 -10.695312 7.285156 -11.140625 C 5.59375 -11.792969 3.871094 -11.707031 2.253906 -10.875 C 0.402344 -9.925781 -0.164062 -7.164062 2.164062 -5.859375 C 4.375 -4.644531 6.46875 -5.015625 8.769531 -3.664062 C 9.746094 -3.085938 9.71875 -1.929688 8.738281 -1.378906 C 7.507812 -0.609375 3.753906 -0.726562 1.4375 -2.65625 C 1.214844 -2.832031 1.007812 -2.953125 0.742188 -2.847656 C 0.445312 -2.730469 0.414062 -2.460938 0.386719 -2.210938 C 0.28125 -1.320312 0.785156 -0.59375 1.796875 -0.3125 C 4.257812 0.328125 7.359375 0.800781 9.554688 -0.28125 Z M 9.554688 -0.28125 "/></g></g></g><g fill="#000000" fill-opacity="1"><g transform="translate(54.958195, 13.097121)"><g><path d="M 6.410156 0.652344 C 6.972656 0.683594 6.898438 -0.105469 6.957031 -0.636719 C 7.121094 -1.765625 6.78125 -7.460938 6.765625 -8.277344 C 6.734375 -9.792969 6.75 -9.523438 8.011719 -9.507812 C 8.695312 -9.507812 9.390625 -9.433594 10.074219 -9.628906 C 10.339844 -9.703125 10.546875 -9.867188 10.5625 -10.164062 C 10.59375 -10.472656 10.386719 -10.636719 10.117188 -10.726562 C 8.917969 -11.113281 1.957031 -11.675781 0.84375 -11.363281 C 0.5625 -11.304688 0.402344 -11.113281 0.371094 -10.816406 C 0.339844 -10.546875 0.445312 -10.3125 0.683594 -10.164062 C 1.320312 -9.777344 3.382812 -9.6875 4.644531 -9.628906 C 5.164062 -9.613281 5.296875 -9.40625 5.265625 -8.917969 C 5.089844 -5.964844 5.472656 -3.054688 5.90625 -0.132812 C 5.964844 0.148438 5.964844 0.625 6.410156 0.652344 Z M 6.410156 0.652344 "/></g></g></g><g fill="#000000" fill-opacity="1"><g transform="translate(65.890599, 13.097121)"><g><path d="M 0.710938 0.386719 C 1.558594 0.652344 2.179688 -1.410156 2.609375 -2.582031 C 2.757812 -2.96875 2.996094 -3.117188 3.414062 -3.042969 C 4.300781 -2.878906 5.222656 -2.894531 6.128906 -2.9375 C 6.882812 -2.980469 7.34375 -2.773438 7.550781 -1.988281 C 7.832031 -0.933594 8.796875 0.3125 9.421875 0 C 9.835938 -0.191406 9.71875 -0.84375 9.597656 -1.171875 C 8.753906 -3.871094 6.023438 -9.390625 5.890625 -9.570312 C 5.265625 -10.28125 4.808594 -10.222656 4.375 -9.332031 C 3.308594 -7.210938 2.417969 -5 1.214844 -2.9375 C 0.757812 -2.164062 0.503906 -1.277344 0.386719 -0.371094 C 0.355469 -0.0585938 0.339844 0.28125 0.710938 0.386719 Z M 3.589844 -4.628906 C 4.066406 -5.652344 4.449219 -6.511719 4.953125 -7.625 L 6.277344 -4.628906 Z M 3.589844 -4.628906 "/></g></g></g><g fill="#000000" fill-opacity="1"><g transform="translate(75.962648, 13.097121)"><g><path d="M 11.925781 0.0429688 C 12.609375 -0.0429688 13.027344 -3.277344 12.878906 -5.015625 C 12.847656 -5.445312 12.667969 -5.800781 12.296875 -5.964844 C 11.007812 -6.542969 8.855469 -6.855469 8.769531 -5.917969 C 8.695312 -5.175781 9.507812 -5.191406 10.132812 -5.074219 C 10.917969 -4.925781 11.066406 -4.734375 10.949219 -3.917969 C 10.753906 -2.609375 10.058594 -1.734375 8.8125 -1.214844 C 5.636719 0.0585938 1.585938 -2.9375 2.238281 -6.203125 C 2.582031 -7.980469 4.199219 -9.65625 5.90625 -10 C 8.277344 -10.472656 9.820312 -9.894531 11.050781 -8.039062 C 11.230469 -7.789062 11.394531 -7.492188 11.765625 -7.683594 C 12.550781 -8.085938 11.511719 -9.984375 10.296875 -10.695312 C 8.21875 -11.914062 5.933594 -12.121094 3.8125 -11.125 C 1.722656 -10.148438 0.296875 -8.367188 0.371094 -5.90625 C 0.488281 -0.917969 6.941406 2.105469 11.125 -1.425781 C 11.335938 -0.609375 11.363281 0.0742188 11.925781 0.0429688 Z M 11.925781 0.0429688 "/></g></g></g><g fill="#000000" fill-opacity="1"><g transform="translate(89.238773, 13.097121)"><g><path d="M 1.898438 -0.0742188 C 2.832031 0.0585938 7.582031 0.03125 8.484375 -0.179688 C 8.992188 -0.28125 9.644531 -0.328125 9.671875 -0.964844 C 9.6875 -1.632812 9.050781 -1.691406 8.53125 -1.78125 C 7.890625 -1.882812 3.929688 -1.808594 3.234375 -1.796875 C 2.238281 -1.78125 2.238281 -1.78125 2.269531 -2.714844 L 2.269531 -4.273438 C 2.285156 -5.28125 2.285156 -5.296875 3.351562 -5.324219 C 4.820312 -5.386719 6.289062 -5.503906 7.730469 -5.800781 C 8.113281 -5.875 8.753906 -5.785156 8.753906 -6.347656 C 8.738281 -6.972656 8.113281 -6.78125 7.730469 -6.808594 C 6.140625 -6.957031 4.539062 -7.046875 2.953125 -6.808594 C 2.375 -6.71875 2.164062 -6.929688 2.152344 -7.476562 C 2.121094 -8.128906 2.09375 -8.769531 1.988281 -9.421875 C 1.914062 -9.941406 2.105469 -10.101562 2.609375 -10.101562 C 3.992188 -10.101562 5.386719 -10.089844 6.75 -9.925781 C 7.699219 -9.804688 8.648438 -9.835938 9.597656 -9.851562 C 9.984375 -9.867188 10.296875 -10.042969 10.3125 -10.460938 C 10.3125 -10.800781 10.042969 -10.992188 9.730469 -11.066406 C 9.40625 -11.15625 5.355469 -11.363281 3.144531 -11.453125 C 2.460938 -11.484375 1.75 -11.46875 1.097656 -11.230469 C 0.757812 -11.113281 0.445312 -10.976562 0.550781 -10.503906 C 0.859375 -9.050781 0.519531 -7.582031 0.503906 -6.128906 C 0.476562 -4.660156 0.355469 -3.191406 0.371094 -1.734375 C 0.386719 -0.519531 0.667969 -0.265625 1.898438 -0.0742188 Z M 1.898438 -0.0742188 "/></g></g></g><g fill="#000000" fill-opacity="1"><g transform="translate(99.919001, 13.097121)"><g><path d="M 0.980469 0.683594 C 1.78125 0.710938 1.808594 -0.253906 1.839844 -1.082031 C 1.898438 -3.25 1.914062 -7.714844 2.136719 -8.25 C 3.324219 -7.226562 4.4375 -6.289062 5.535156 -5.339844 C 6.808594 -4.226562 7.804688 -4.242188 9.050781 -5.414062 C 9.894531 -6.214844 10.726562 -7.03125 11.707031 -7.964844 C 12.121094 -5.386719 11.632812 -2.789062 12.445312 -0.59375 C 12.625 -0.105469 12.90625 0.445312 13.542969 0.253906 C 14.109375 0.0898438 14.035156 -0.476562 14.019531 -0.964844 C 14.019531 -0.992188 14.003906 -1.039062 14.003906 -1.082031 C 13.8125 -2.535156 13.753906 -4.003906 13.707031 -5.472656 C 13.679688 -6.691406 13.542969 -7.890625 13.382812 -9.09375 C 13.203125 -10.371094 12.507812 -10.636719 11.542969 -9.820312 C 10.296875 -8.738281 9.035156 -7.683594 7.921875 -6.496094 C 7.210938 -5.742188 7.015625 -5.84375 6.394531 -6.484375 C 5.265625 -7.625 4.003906 -8.605469 2.9375 -9.804688 C 2.238281 -10.605469 1.277344 -10.519531 0.917969 -9.730469 C 0.769531 -9.421875 0.757812 -9.066406 0.757812 -8.722656 C 0.710938 -6.988281 0.652344 -5.265625 0.488281 -3.546875 C 0.386719 -2.386719 0.429688 -1.214844 0.414062 -0.0429688 C 0.414062 0.328125 0.535156 0.652344 0.980469 0.683594 Z M 0.980469 0.683594 "/></g></g></g><g fill="#000000" fill-opacity="1"><g transform="translate(114.277977, 13.097121)"><g/></g></g><g fill="#000000" fill-opacity="1"><g transform="translate(121.6948, 13.097121)"><g><path d="M 1.574219 -0.0742188 C 3.175781 0.0898438 4.761719 -0.015625 6.335938 -0.3125 C 8.855469 -0.785156 10.859375 -2.300781 11.289062 -4.820312 C 11.78125 -10.386719 6.542969 -11.558594 1.113281 -10.964844 C 0.5625 -10.890625 0.355469 -10.519531 0.371094 -9.941406 C 0.414062 -8.203125 0.28125 -3.277344 0.519531 -1.128906 C 0.59375 -0.476562 0.875 -0.132812 1.574219 -0.0742188 Z M 2.269531 -1.378906 C 1.796875 -1.335938 1.660156 -1.601562 1.707031 -2.019531 C 1.972656 -4.347656 1.734375 -6.675781 1.675781 -9.019531 C 1.648438 -9.746094 1.882812 -10 2.582031 -10.042969 C 4.777344 -10.207031 6.792969 -9.746094 8.484375 -8.261719 C 10.5625 -6.421875 10.058594 -3.324219 7.492188 -2.195312 C 5.695312 -1.410156 3.054688 -1.4375 2.269531 -1.378906 Z M 2.269531 -1.378906 "/></g></g></g><g fill="#000000" fill-opacity="1"><g transform="translate(133.383722, 13.097121)"><g><path d="M 1.898438 -0.0742188 C 2.832031 0.0585938 7.582031 0.03125 8.484375 -0.179688 C 8.992188 -0.28125 9.644531 -0.328125 9.671875 -0.964844 C 9.6875 -1.632812 9.050781 -1.691406 8.53125 -1.78125 C 7.890625 -1.882812 3.929688 -1.808594 3.234375 -1.796875 C 2.238281 -1.78125 2.238281 -1.78125 2.269531 -2.714844 L 2.269531 -4.273438 C 2.285156 -5.28125 2.285156 -5.296875 3.351562 -5.324219 C 4.820312 -5.386719 6.289062 -5.503906 7.730469 -5.800781 C 8.113281 -5.875 8.753906 -5.785156 8.753906 -6.347656 C 8.738281 -6.972656 8.113281 -6.78125 7.730469 -6.808594 C 6.140625 -6.957031 4.539062 -7.046875 2.953125 -6.808594 C 2.375 -6.71875 2.164062 -6.929688 2.152344 -7.476562 C 2.121094 -8.128906 2.09375 -8.769531 1.988281 -9.421875 C 1.914062 -9.941406 2.105469 -10.101562 2.609375 -10.101562 C 3.992188 -10.101562 5.386719 -10.089844 6.75 -9.925781 C 7.699219 -9.804688 8.648438 -9.835938 9.597656 -9.851562 C 9.984375 -9.867188 10.296875 -10.042969 10.3125 -10.460938 C 10.3125 -10.800781 10.042969 -10.992188 9.730469 -11.066406 C 9.40625 -11.15625 5.355469 -11.363281 3.144531 -11.453125 C 2.460938 -11.484375 1.75 -11.46875 1.097656 -11.230469 C 0.757812 -11.113281 0.445312 -10.976562 0.550781 -10.503906 C 0.859375 -9.050781 0.519531 -7.582031 0.503906 -6.128906 C 0.476562 -4.660156 0.355469 -3.191406 0.371094 -1.734375 C 0.386719 -0.519531 0.667969 -0.265625 1.898438 -0.0742188 Z M 1.898438 -0.0742188 "/></g></g></g><g fill="#000000" fill-opacity="1"><g transform="translate(35.14247, 27.61325)"><g><path d="M 1.171875 0 C 1.660156 0.03125 1.824219 -0.339844 1.871094 -0.757812 L 1.898438 -4.125 C 1.898438 -4.613281 2.03125 -4.867188 2.625 -4.910156 C 4.808594 -5.058594 6.839844 -5.816406 8.796875 -6.71875 C 13.441406 -8.828125 6.363281 -12.566406 1.214844 -11.171875 C 0.386719 -10.949219 0.28125 -10.753906 0.414062 -9.894531 C 0.625 -8.605469 0.726562 -7.328125 0.683594 -6.023438 L 0.5625 -0.726562 C 0.59375 -0.339844 0.757812 -0.03125 1.171875 0 Z M 2.046875 -6.46875 C 1.957031 -7.566406 1.882812 -8.589844 1.808594 -9.613281 C 1.78125 -9.925781 1.945312 -10.042969 2.253906 -10.101562 C 4.597656 -10.546875 7.433594 -10.148438 8.398438 -9.332031 C 10.164062 -7.863281 7.550781 -7.089844 5.398438 -6.78125 C 4.300781 -6.632812 3.191406 -6.570312 2.046875 -6.46875 Z M 2.046875 -6.46875 "/></g></g></g><g fill="#000000" fill-opacity="1"><g transform="translate(45.585362, 27.61325)"><g><path d="M 0.816406 -0.015625 C 1.378906 0.0742188 1.484375 -0.429688 1.601562 -0.84375 C 1.660156 -1.054688 1.648438 -1.277344 1.660156 -1.5 C 1.734375 -2.3125 1.824219 -3.128906 1.871094 -3.945312 C 1.882812 -4.464844 2.046875 -4.734375 2.609375 -4.703125 C 5.859375 -4.390625 6.394531 -5.089844 7.699219 -3.292969 C 8.261719 -2.492188 9.066406 -1.855469 9.761719 -1.15625 C 10.042969 -0.890625 10.371094 -0.550781 10.769531 -0.875 C 11.171875 -1.214844 10.84375 -1.601562 10.695312 -1.945312 C 10.503906 -2.402344 8.664062 -4.257812 7.730469 -5.265625 C 8.515625 -5.535156 9.109375 -5.769531 9.597656 -6.203125 C 10.59375 -7.0625 10.59375 -8.113281 9.597656 -8.945312 C 8.382812 -9.953125 5.785156 -10.902344 3.144531 -10.992188 C 2.640625 -11.007812 2.105469 -10.949219 1.617188 -10.828125 C 0.609375 -10.578125 0.476562 -10.265625 0.710938 -9.210938 C 0.757812 -8.976562 0.726562 -8.707031 0.710938 -8.457031 C 0.550781 -5.949219 0.636719 -3.457031 0.402344 -0.949219 C 0.355469 -0.59375 0.28125 -0.0898438 0.816406 -0.015625 Z M 4.183594 -5.816406 C 3.414062 -5.800781 2.523438 -5.460938 2.105469 -5.875 C 1.617188 -6.347656 1.945312 -7.253906 1.957031 -7.980469 C 1.972656 -9.613281 1.734375 -9.496094 3.488281 -9.523438 C 5.636719 -9.570312 9.449219 -8.828125 9.390625 -7.523438 C 9.347656 -6.808594 8.679688 -6.46875 8.054688 -6.261719 C 6.765625 -5.816406 5.429688 -5.785156 4.183594 -5.816406 Z M 4.183594 -5.816406 "/></g></g></g><g fill="#000000" fill-opacity="1"><g transform="translate(56.918269, 27.61325)"><g><path d="M 6.988281 0 C 10.488281 0 12.34375 -1.855469 13.25 -4.953125 C 13.679688 -6.410156 13.5 -7.953125 12.417969 -9.109375 C 9.125 -12.609375 4.597656 -12.804688 1.4375 -8.886719 C 0.414062 -7.640625 0.0742188 -6.113281 0.636719 -4.480469 C 1.585938 -1.796875 4.125 0 6.988281 0 Z M 3.160156 -3.175781 C 2.507812 -3.992188 2.195312 -4.882812 2.375 -5.917969 C 2.65625 -7.582031 3.589844 -8.828125 4.792969 -9.941406 C 5.371094 -10.472656 6.066406 -10.371094 6.75 -10.386719 C 8.21875 -10.414062 9.554688 -9.925781 10.753906 -9.125 C 12.210938 -8.160156 12.535156 -6.75 12.148438 -5.058594 C 11.261719 -1.113281 5.324219 -0.371094 3.160156 -3.175781 Z M 3.160156 -3.175781 "/></g></g></g><g clip-path="url(#884b537f7a)"><g fill="#000000" fill-opacity="1"><g transform="translate(70.758063, 27.61325)"><g><path d="M 10.117188 -1.648438 C 10.800781 -2.269531 11.289062 -3.027344 11.335938 -3.992188 C 11.335938 -4.214844 11.363281 -4.464844 11.125 -4.554688 C 10.769531 -4.6875 10.726562 -4.363281 10.605469 -4.152344 C 9.257812 -1.675781 6.558594 -0.683594 4.003906 -1.707031 C 3.027344 -2.09375 2.300781 -2.746094 2.046875 -3.796875 C 1.691406 -5.238281 1.796875 -6.632812 2.582031 -7.921875 C 3.175781 -8.902344 4.035156 -9.507812 5.175781 -9.671875 C 6.394531 -9.851562 7.597656 -9.6875 8.738281 -9.257812 C 9.507812 -8.960938 10.027344 -8.398438 10.414062 -7.699219 C 10.695312 -7.226562 10.859375 -6.453125 11.335938 -6.617188 C 11.660156 -6.707031 11.617188 -7.03125 11.601562 -7.269531 C 11.527344 -8.664062 10.695312 -9.570312 9.554688 -10.207031 C 8.621094 -10.710938 7.597656 -10.902344 6.558594 -11.007812 C 3.339844 -11.378906 1.039062 -9.777344 0.488281 -6.585938 C -0.578125 -0.238281 6.277344 1.972656 10.117188 -1.648438 Z M 10.117188 -1.648438 "/></g></g></g></g><g fill="#000000" fill-opacity="1"><g transform="translate(82.74366, 27.61325)"><g><path d="M 1.898438 -0.0742188 C 2.832031 0.0585938 7.582031 0.03125 8.484375 -0.179688 C 8.992188 -0.28125 9.644531 -0.328125 9.671875 -0.964844 C 9.6875 -1.632812 9.050781 -1.691406 8.53125 -1.78125 C 7.890625 -1.882812 3.929688 -1.808594 3.234375 -1.796875 C 2.238281 -1.78125 2.238281 -1.78125 2.269531 -2.714844 L 2.269531 -4.273438 C 2.285156 -5.28125 2.285156 -5.296875 3.351562 -5.324219 C 4.820312 -5.386719 6.289062 -5.503906 7.730469 -5.800781 C 8.113281 -5.875 8.753906 -5.785156 8.753906 -6.347656 C 8.738281 -6.972656 8.113281 -6.78125 7.730469 -6.808594 C 6.140625 -6.957031 4.539062 -7.046875 2.953125 -6.808594 C 2.375 -6.71875 2.164062 -6.929688 2.152344 -7.476562 C 2.121094 -8.128906 2.09375 -8.769531 1.988281 -9.421875 C 1.914062 -9.941406 2.105469 -10.101562 2.609375 -10.101562 C 3.992188 -10.101562 5.386719 -10.089844 6.75 -9.925781 C 7.699219 -9.804688 8.648438 -9.835938 9.597656 -9.851562 C 9.984375 -9.867188 10.296875 -10.042969 10.3125 -10.460938 C 10.3125 -10.800781 10.042969 -10.992188 9.730469 -11.066406 C 9.40625 -11.15625 5.355469 -11.363281 3.144531 -11.453125 C 2.460938 -11.484375 1.75 -11.46875 1.097656 -11.230469 C 0.757812 -11.113281 0.445312 -10.976562 0.550781 -10.503906 C 0.859375 -9.050781 0.519531 -7.582031 0.503906 -6.128906 C 0.476562 -4.660156 0.355469 -3.191406 0.371094 -1.734375 C 0.386719 -0.519531 0.667969 -0.265625 1.898438 -0.0742188 Z M 1.898438 -0.0742188 "/></g></g></g><g fill="#000000" fill-opacity="1"><g transform="translate(93.423888, 27.61325)"><g><path d="M 9.554688 -0.28125 C 10.472656 -0.726562 11.039062 -1.453125 11.082031 -2.507812 C 11.125 -3.574219 10.59375 -4.316406 9.6875 -4.808594 C 8.621094 -5.371094 3.277344 -6.972656 2.773438 -7.34375 C 2.136719 -7.816406 2.0625 -8.515625 2.550781 -9.152344 C 3.753906 -10.710938 6.765625 -10.636719 7.921875 -9.035156 C 8.261719 -8.546875 8.664062 -7.773438 9.050781 -7.921875 C 9.359375 -8.054688 9.332031 -8.351562 9.273438 -8.605469 C 9.035156 -9.777344 8.425781 -10.695312 7.285156 -11.140625 C 5.59375 -11.792969 3.871094 -11.707031 2.253906 -10.875 C 0.402344 -9.925781 -0.164062 -7.164062 2.164062 -5.859375 C 4.375 -4.644531 6.46875 -5.015625 8.769531 -3.664062 C 9.746094 -3.085938 9.71875 -1.929688 8.738281 -1.378906 C 7.507812 -0.609375 3.753906 -0.726562 1.4375 -2.65625 C 1.214844 -2.832031 1.007812 -2.953125 0.742188 -2.847656 C 0.445312 -2.730469 0.414062 -2.460938 0.386719 -2.210938 C 0.28125 -1.320312 0.785156 -0.59375 1.796875 -0.3125 C 4.257812 0.328125 7.359375 0.800781 9.554688 -0.28125 Z M 9.554688 -0.28125 "/></g></g></g><g fill="#000000" fill-opacity="1"><g transform="translate(104.875474, 27.61325)"><g><path d="M 9.554688 -0.28125 C 10.472656 -0.726562 11.039062 -1.453125 11.082031 -2.507812 C 11.125 -3.574219 10.59375 -4.316406 9.6875 -4.808594 C 8.621094 -5.371094 3.277344 -6.972656 2.773438 -7.34375 C 2.136719 -7.816406 2.0625 -8.515625 2.550781 -9.152344 C 3.753906 -10.710938 6.765625 -10.636719 7.921875 -9.035156 C 8.261719 -8.546875 8.664062 -7.773438 9.050781 -7.921875 C 9.359375 -8.054688 9.332031 -8.351562 9.273438 -8.605469 C 9.035156 -9.777344 8.425781 -10.695312 7.285156 -11.140625 C 5.59375 -11.792969 3.871094 -11.707031 2.253906 -10.875 C 0.402344 -9.925781 -0.164062 -7.164062 2.164062 -5.859375 C 4.375 -4.644531 6.46875 -5.015625 8.769531 -3.664062 C 9.746094 -3.085938 9.71875 -1.929688 8.738281 -1.378906 C 7.507812 -0.609375 3.753906 -0.726562 1.4375 -2.65625 C 1.214844 -2.832031 1.007812 -2.953125 0.742188 -2.847656 C 0.445312 -2.730469 0.414062 -2.460938 0.386719 -2.210938 C 0.28125 -1.320312 0.785156 -0.59375 1.796875 -0.3125 C 4.257812 0.328125 7.359375 0.800781 9.554688 -0.28125 Z M 9.554688 -0.28125 "/></g></g></g><g fill="#000000" fill-opacity="1"><g transform="translate(116.327059, 27.61325)"><g><path d="M 6.988281 0 C 10.488281 0 12.34375 -1.855469 13.25 -4.953125 C 13.679688 -6.410156 13.5 -7.953125 12.417969 -9.109375 C 9.125 -12.609375 4.597656 -12.804688 1.4375 -8.886719 C 0.414062 -7.640625 0.0742188 -6.113281 0.636719 -4.480469 C 1.585938 -1.796875 4.125 0 6.988281 0 Z M 3.160156 -3.175781 C 2.507812 -3.992188 2.195312 -4.882812 2.375 -5.917969 C 2.65625 -7.582031 3.589844 -8.828125 4.792969 -9.941406 C 5.371094 -10.472656 6.066406 -10.371094 6.75 -10.386719 C 8.21875 -10.414062 9.554688 -9.925781 10.753906 -9.125 C 12.210938 -8.160156 12.535156 -6.75 12.148438 -5.058594 C 11.261719 -1.113281 5.324219 -0.371094 3.160156 -3.175781 Z M 3.160156 -3.175781 "/></g></g></g><g fill="#000000" fill-opacity="1"><g transform="translate(130.166854, 27.61325)"><g><path d="M 9.554688 -0.28125 C 10.472656 -0.726562 11.039062 -1.453125 11.082031 -2.507812 C 11.125 -3.574219 10.59375 -4.316406 9.6875 -4.808594 C 8.621094 -5.371094 3.277344 -6.972656 2.773438 -7.34375 C 2.136719 -7.816406 2.0625 -8.515625 2.550781 -9.152344 C 3.753906 -10.710938 6.765625 -10.636719 7.921875 -9.035156 C 8.261719 -8.546875 8.664062 -7.773438 9.050781 -7.921875 C 9.359375 -8.054688 9.332031 -8.351562 9.273438 -8.605469 C 9.035156 -9.777344 8.425781 -10.695312 7.285156 -11.140625 C 5.59375 -11.792969 3.871094 -11.707031 2.253906 -10.875 C 0.402344 -9.925781 -0.164062 -7.164062 2.164062 -5.859375 C 4.375 -4.644531 6.46875 -5.015625 8.769531 -3.664062 C 9.746094 -3.085938 9.71875 -1.929688 8.738281 -1.378906 C 7.507812 -0.609375 3.753906 -0.726562 1.4375 -2.65625 C 1.214844 -2.832031 1.007812 -2.953125 0.742188 -2.847656 C 0.445312 -2.730469 0.414062 -2.460938 0.386719 -2.210938 C 0.28125 -1.320312 0.785156 -0.59375 1.796875 -0.3125 C 4.257812 0.328125 7.359375 0.800781 9.554688 -0.28125 Z M 9.554688 -0.28125 "/></g></g></g><g clip-path="url(#0b1c5e5115)"><path fill="#d73f23" d="M 13.40625 11.382812 C 11.855469 10.933594 10.957031 9.320312 11.40625 7.773438 C 11.855469 6.226562 13.476562 5.335938 15.03125 5.78125 C 16.585938 6.226562 17.480469 7.84375 17.03125 9.390625 C 16.582031 10.9375 14.960938 11.828125 13.40625 11.382812 Z M 20.113281 11.625 C 20.308594 11.246094 20.472656 10.839844 20.597656 10.414062 C 20.757812 9.863281 20.839844 9.308594 20.855469 8.761719 L 22.78125 8.035156 L 21.984375 4.828125 L 19.8125 5.023438 C 19.28125 4.191406 18.5625 3.476562 17.695312 2.949219 L 18.027344 0.925781 L 14.839844 0.0117188 L 13.921875 1.976562 C 12.910156 2.023438 11.929688 2.300781 11.058594 2.769531 L 9.464844 1.46875 L 7.074219 3.761719 L 8.328125 5.535156 C 8.128906 5.917969 7.964844 6.320312 7.839844 6.75 C 7.679688 7.300781 7.597656 7.855469 7.582031 8.402344 L 5.65625 9.125 L 6.453125 12.332031 L 8.625 12.140625 C 9.15625 12.96875 9.875 13.683594 10.742188 14.214844 L 10.410156 16.234375 L 13.601562 17.152344 L 14.515625 15.1875 C 15.53125 15.140625 16.507812 14.863281 17.378906 14.394531 L 18.972656 15.691406 L 21.363281 13.402344 L 20.113281 11.625 " fill-opacity="1" fill-rule="nonzero"/></g><g clip-path="url(#b252be4a36)"><path fill="#338b8c" d="M 26.589844 13.5 C 25.558594 13.773438 24.496094 13.164062 24.21875 12.136719 C 23.945312 11.109375 24.554688 10.054688 25.585938 9.777344 C 26.621094 9.503906 27.679688 10.113281 27.957031 11.140625 C 28.234375 12.167969 27.621094 13.222656 26.589844 13.5 Z M 30.464844 11.359375 C 30.449219 11.078125 30.402344 10.792969 30.324219 10.507812 C 30.226562 10.144531 30.085938 9.800781 29.90625 9.484375 L 30.746094 8.421875 L 29.195312 6.878906 L 28.035156 7.726562 C 27.449219 7.4375 26.796875 7.277344 26.125 7.269531 L 25.617188 6.011719 L 23.5 6.578125 L 23.65625 8.003906 C 23.097656 8.371094 22.640625 8.863281 22.308594 9.425781 L 20.960938 9.230469 L 20.394531 11.339844 L 21.710938 11.917969 C 21.730469 12.203125 21.773438 12.484375 21.851562 12.769531 C 21.949219 13.136719 22.09375 13.476562 22.269531 13.792969 L 21.429688 14.855469 L 22.980469 16.402344 L 24.144531 15.554688 C 24.730469 15.84375 25.382812 16.003906 26.054688 16.007812 L 26.558594 17.265625 L 28.675781 16.699219 L 28.519531 15.273438 C 29.078125 14.90625 29.535156 14.414062 29.871094 13.851562 L 31.214844 14.046875 L 31.785156 11.9375 L 30.464844 11.359375 " fill-opacity="1" fill-rule="nonzero"/></g><g clip-path="url(#f65aa17b52)"><path fill="#e0a11b" d="M 16.585938 23.648438 C 15.589844 22.714844 15.539062 21.15625 16.476562 20.164062 C 17.410156 19.171875 18.976562 19.121094 19.972656 20.054688 C 20.972656 20.984375 21.019531 22.546875 20.085938 23.539062 C 19.148438 24.53125 17.582031 24.578125 16.585938 23.648438 Z M 21.539062 26.402344 C 21.835938 26.191406 22.113281 25.949219 22.375 25.675781 C 22.707031 25.324219 22.984375 24.9375 23.207031 24.53125 L 24.9375 24.722656 L 25.578125 22.003906 L 23.867188 21.316406 C 23.789062 20.488281 23.523438 19.671875 23.074219 18.941406 L 24.109375 17.546875 L 22.0625 15.636719 L 20.609375 16.765625 C 19.828125 16.410156 18.988281 16.242188 18.148438 16.265625 L 17.449219 14.675781 L 14.765625 15.484375 L 15.019531 17.300781 C 14.726562 17.511719 14.445312 17.753906 14.1875 18.027344 C 13.855469 18.378906 13.574219 18.765625 13.351562 19.171875 L 11.621094 18.976562 L 10.984375 21.699219 L 12.691406 22.386719 C 12.773438 23.214844 13.035156 24.027344 13.484375 24.761719 L 12.453125 26.15625 L 14.5 28.066406 L 15.949219 26.9375 C 16.730469 27.292969 17.574219 27.457031 18.414062 27.4375 L 19.109375 29.027344 L 21.796875 28.21875 L 21.539062 26.402344 " fill-opacity="1" fill-rule="nonzero"/></g><path fill="#4a3529" d="M 24.644531 4.027344 C 24.078125 4.027344 23.617188 3.566406 23.617188 3.003906 C 23.617188 2.4375 24.078125 1.980469 24.644531 1.980469 C 25.214844 1.980469 25.675781 2.4375 25.675781 3.003906 C 25.675781 3.566406 25.214844 4.027344 24.644531 4.027344 Z M 26.933594 3.457031 C 26.960938 3.3125 26.976562 3.160156 26.976562 3.003906 C 26.976562 2.800781 26.953125 2.605469 26.902344 2.417969 L 27.480469 1.988281 L 26.898438 0.984375 L 26.183594 1.257812 C 25.925781 1.03125 25.613281 0.859375 25.265625 0.765625 L 25.183594 0.0507812 L 24.015625 0.0507812 L 23.898438 0.800781 C 23.5625 0.914062 23.257812 1.105469 23.011719 1.347656 L 22.347656 1.0625 L 21.761719 2.070312 L 22.359375 2.546875 C 22.332031 2.695312 22.316406 2.847656 22.316406 3.003906 C 22.316406 3.203125 22.339844 3.398438 22.390625 3.585938 L 21.808594 4.015625 L 22.394531 5.019531 L 23.105469 4.746094 C 23.367188 4.972656 23.679688 5.144531 24.023438 5.238281 L 24.109375 5.953125 L 25.277344 5.953125 L 25.390625 5.203125 C 25.730469 5.089844 26.03125 4.898438 26.28125 4.65625 L 26.945312 4.941406 L 27.527344 3.933594 L 26.933594 3.457031 " fill-opacity="1" fill-rule="nonzero"/></svg>