<svg xmlns="http://www.w3.org/2000/svg" xmlns:xlink="http://www.w3.org/1999/xlink" width="1500" zoomAndPan="magnify" viewBox="0 0 567 567.000005" height="1500" preserveAspectRatio="xMidYMid meet" version="1.0"><defs><clipPath id="88721ab527"><path d="M 9.785156 188 L 557 188 L 557 377 L 9.785156 377 Z M 9.785156 188 " clip-rule="nonzero"/></clipPath></defs><g clip-path="url(#88721ab527)"><path fill="#2a7bbe" d="M 553.019531 189.519531 C 552.441406 189.519531 521.199219 189.519531 521.199219 189.519531 C 516.570312 189.519531 511.941406 194.148438 507.316406 194.726562 C 500.953125 194.726562 494.585938 192.992188 488.222656 191.832031 C 424.007812 180.839844 356.898438 196.464844 292.105469 210.351562 C 286.898438 211.507812 279.953125 212.089844 262.019531 208.039062 C 103.503906 172.734375 81.519531 195.882812 59.535156 194.726562 C 54.910156 194.726562 50.28125 190.097656 45.652344 189.519531 C 1.683594 189.519531 8.625 187.78125 13.253906 201.09375 C 23.089844 234.078125 24.824219 324.9375 65.898438 357.921875 C 98.875 383.964844 154.992188 379.335938 192.019531 367.179688 C 233.09375 353.871094 267.226562 297.738281 265.492188 271.695312 C 263.175781 237.550781 302.515625 232.921875 301.9375 272.851562 C 301.359375 301.207031 336.070312 353.871094 375.410156 367.179688 C 413.59375 379.914062 469.132812 383.386719 501.53125 357.921875 C 542.027344 325.515625 543.761719 234.65625 553.597656 201.671875 C 555.332031 196.464844 559.960938 190.675781 553.019531 189.519531 Z M 247.558594 243.339844 C 243.507812 303.523438 223.835938 350.398438 165.984375 364.867188 C 123.175781 375.285156 74 369.496094 53.171875 326.09375 C 38.710938 297.15625 19.039062 213.824219 106.398438 203.984375 C 146.894531 199.355469 188.546875 202.828125 227.886719 214.402344 C 240.613281 217.875 248.136719 230.027344 247.558594 243.339844 Z M 513.679688 326.09375 C 487.066406 381.648438 414.171875 374.125 378.304688 356.765625 C 336.070312 335.929688 322.1875 290.214844 319.292969 243.339844 C 318.714844 230.027344 326.238281 217.875 338.964844 214.402344 C 378.304688 202.828125 419.957031 199.355469 460.453125 203.984375 C 546.65625 213.824219 528.71875 294.84375 513.679688 326.09375 Z M 513.679688 326.09375 " fill-opacity="1" fill-rule="nonzero"/></g></svg>