<svg xmlns="http://www.w3.org/2000/svg" xmlns:xlink="http://www.w3.org/1999/xlink" width="500" zoomAndPan="magnify" viewBox="0 0 375 374.999991" height="500" preserveAspectRatio="xMidYMid meet" version="1.0"><defs><clipPath id="0c53f8d15f"><path d="M 83 13.125 L 261 13.125 L 261 271 L 83 271 Z M 83 13.125 " clip-rule="nonzero"/></clipPath></defs><path fill="#ffffff" d="M 327.773438 318.421875 C 324.894531 322.796875 319.015625 324.007812 314.644531 321.128906 C 310.269531 318.246094 309.058594 312.367188 311.9375 307.992188 C 314.816406 303.625 320.703125 302.414062 325.074219 305.292969 C 329.441406 308.171875 330.652344 314.050781 327.773438 318.421875 Z M 333.046875 321.894531 C 336.457031 316.71875 336.421875 310.277344 333.503906 305.253906 C 334.570312 302.53125 335.582031 299.660156 336.492188 296.628906 C 336.601562 296.285156 336.707031 295.949219 336.8125 295.601562 C 336.90625 295.253906 337 294.90625 337.101562 294.558594 C 337.292969 293.859375 337.484375 293.152344 337.675781 292.441406 C 337.875 291.730469 338.027344 291.007812 338.207031 290.277344 C 338.378906 289.550781 338.566406 288.824219 338.722656 288.078125 C 338.875 287.332031 339.027344 286.585938 339.179688 285.832031 C 339.257812 285.453125 339.335938 285.074219 339.410156 284.699219 C 339.476562 284.3125 339.542969 283.933594 339.609375 283.546875 C 339.734375 282.777344 339.867188 282.003906 340 281.222656 C 340.125 280.441406 340.21875 279.648438 340.328125 278.859375 C 340.5625 277.273438 340.703125 275.65625 340.871094 274.019531 C 340.964844 273.203125 340.996094 272.375 341.054688 271.542969 C 341.101562 270.714844 341.183594 269.882812 341.207031 269.039062 C 341.253906 267.359375 341.332031 265.65625 341.304688 263.933594 C 341.296875 263.074219 341.316406 262.210938 341.28125 261.335938 C 341.246094 260.46875 341.214844 259.59375 341.183594 258.714844 C 340.519531 244.667969 337.085938 229.542969 330.132812 214.988281 C 323.191406 200.453125 312.574219 186.636719 298.84375 175.636719 C 291.960938 170.175781 284.351562 165.394531 276.175781 161.519531 C 267.972656 157.710938 259.238281 154.785156 250.191406 152.953125 C 249.050781 152.746094 247.914062 152.546875 246.777344 152.34375 L 245.070312 152.042969 L 243.351562 151.820312 C 242.199219 151.671875 241.046875 151.527344 239.898438 151.378906 C 238.746094 151.261719 237.585938 151.1875 236.425781 151.09375 C 234.113281 150.863281 231.785156 150.851562 229.453125 150.777344 L 228.582031 150.75 L 227.707031 150.769531 L 225.953125 150.800781 L 224.207031 150.839844 C 223.625 150.859375 223.035156 150.847656 222.457031 150.902344 C 213.128906 151.402344 203.828125 153.039062 194.859375 155.75 L 200.125 172.910156 C 207.695312 170.625 215.515625 169.261719 223.355469 168.832031 C 223.847656 168.78125 224.335938 168.792969 224.828125 168.78125 L 226.296875 168.75 L 227.769531 168.71875 L 228.5 168.699219 L 229.234375 168.722656 C 231.191406 168.800781 233.152344 168.789062 235.097656 168.992188 C 236.070312 169.078125 237.042969 169.132812 238.011719 169.230469 C 238.980469 169.355469 239.945312 169.480469 240.910156 169.601562 L 242.359375 169.785156 L 243.796875 170.042969 C 244.753906 170.210938 245.707031 170.382812 246.667969 170.550781 C 254.277344 172.097656 261.632812 174.5625 268.542969 177.765625 C 275.425781 181.03125 281.835938 185.0625 287.632812 189.660156 C 299.1875 198.925781 308.105469 210.519531 313.945312 222.742188 C 314.292969 223.511719 314.640625 224.28125 314.984375 225.054688 C 315.15625 225.433594 315.332031 225.820312 315.503906 226.199219 C 315.679688 226.578125 315.855469 226.960938 316 227.355469 C 316.300781 228.132812 316.609375 228.910156 316.910156 229.683594 C 317.0625 230.070312 317.210938 230.457031 317.363281 230.839844 L 317.589844 231.417969 L 317.789062 232.003906 C 318.050781 232.785156 318.308594 233.5625 318.566406 234.34375 C 318.699219 234.734375 318.832031 235.121094 318.957031 235.503906 L 319.15625 236.085938 L 319.324219 236.671875 C 319.546875 237.453125 319.769531 238.230469 319.992188 239.003906 C 320.214844 239.777344 320.390625 240.566406 320.585938 241.335938 C 320.6875 241.722656 320.785156 242.109375 320.878906 242.496094 C 320.972656 242.878906 321.046875 243.269531 321.132812 243.660156 C 321.296875 244.429688 321.460938 245.199219 321.625 245.96875 C 321.886719 247.515625 322.199219 249.039062 322.386719 250.566406 C 322.851562 253.609375 323.097656 256.621094 323.253906 259.570312 C 323.285156 260.308594 323.308594 261.046875 323.335938 261.773438 C 323.371094 262.507812 323.34375 263.230469 323.355469 263.953125 C 323.382812 265.398438 323.3125 266.832031 323.269531 268.246094 C 323.253906 268.953125 323.1875 269.652344 323.148438 270.351562 C 323.09375 271.046875 323.070312 271.742188 322.992188 272.425781 C 322.847656 273.804688 322.738281 275.160156 322.53125 276.496094 C 322.4375 277.164062 322.367188 277.828125 322.261719 278.484375 C 322.148438 279.140625 322.039062 279.792969 321.929688 280.4375 C 321.875 280.761719 321.820312 281.085938 321.765625 281.40625 C 321.703125 281.722656 321.636719 282.042969 321.570312 282.363281 C 321.441406 282.996094 321.316406 283.625 321.1875 284.253906 C 321.058594 284.875 320.894531 285.488281 320.753906 286.101562 C 320.601562 286.714844 320.476562 287.324219 320.308594 287.921875 C 320.140625 288.523438 319.980469 289.113281 319.816406 289.699219 C 319.738281 289.996094 319.65625 290.289062 319.578125 290.585938 C 319.488281 290.871094 319.398438 291.164062 319.308594 291.449219 C 318.664062 293.605469 317.953125 295.671875 317.207031 297.644531 C 313.042969 298.355469 309.171875 300.722656 306.667969 304.523438 C 301.871094 311.808594 303.886719 321.601562 311.175781 326.398438 C 318.457031 331.195312 328.25 329.179688 333.046875 321.894531 Z M 297.457031 260.382812 C 297.476562 261.28125 297.527344 262.148438 297.542969 262.972656 C 297.53125 263.800781 297.554688 264.574219 297.542969 265.292969 C 297.519531 266.011719 297.492188 266.671875 297.476562 267.257812 C 297.453125 267.839844 297.40625 268.347656 297.382812 268.769531 C 297.351562 269.1875 297.335938 269.515625 297.320312 269.742188 C 297.296875 269.960938 297.28125 270.085938 297.28125 270.085938 L 304.828125 270.746094 C 304.828125 270.746094 304.839844 270.613281 304.867188 270.363281 C 304.882812 270.117188 304.90625 269.75 304.933594 269.285156 C 304.964844 268.820312 305.011719 268.257812 305.042969 267.609375 C 305.0625 266.960938 305.085938 266.226562 305.113281 265.429688 C 305.128906 264.628906 305.109375 263.765625 305.113281 262.855469 C 305.101562 261.9375 305.042969 260.976562 305.019531 259.976562 C 304.984375 259.476562 304.945312 258.96875 304.90625 258.457031 C 304.863281 257.945312 304.855469 257.425781 304.785156 256.90625 C 304.65625 255.863281 304.589844 254.796875 304.414062 253.746094 C 303.84375 249.515625 302.871094 245.332031 301.945312 242.242188 C 301.738281 241.457031 301.476562 240.765625 301.277344 240.144531 C 301.070312 239.519531 300.886719 238.980469 300.738281 238.535156 C 300.464844 237.632812 300.246094 237.144531 300.246094 237.144531 L 293.144531 239.777344 C 293.144531 239.777344 293.339844 240.222656 293.589844 241.035156 C 293.722656 241.4375 293.886719 241.925781 294.070312 242.488281 C 294.257812 243.054688 294.496094 243.679688 294.679688 244.382812 C 295.519531 247.183594 296.394531 250.953125 296.914062 254.769531 C 297.070312 255.71875 297.128906 256.675781 297.246094 257.617188 C 297.308594 258.085938 297.316406 258.558594 297.351562 259.015625 C 297.390625 259.476562 297.425781 259.933594 297.457031 260.382812 Z M 344.105469 353.367188 C 341.765625 356.3125 337.476562 356.804688 334.53125 354.464844 C 331.585938 352.125 331.097656 347.832031 333.4375 344.886719 C 335.777344 341.941406 340.0625 341.449219 343.007812 343.792969 C 345.953125 346.132812 346.449219 350.421875 344.105469 353.367188 Z M 372.117188 236.359375 C 370.71875 229.109375 368.804688 222.125 366.46875 215.527344 C 365.9375 213.859375 365.273438 212.246094 364.652344 210.640625 C 364.335938 209.835938 364.023438 209.042969 363.710938 208.25 C 363.550781 207.851562 363.394531 207.457031 363.238281 207.0625 C 363.074219 206.671875 362.894531 206.285156 362.722656 205.902344 C 362.027344 204.355469 361.339844 202.832031 360.664062 201.324219 C 360.488281 200.949219 360.320312 200.574219 360.144531 200.203125 C 359.964844 199.835938 359.777344 199.46875 359.59375 199.101562 C 359.222656 198.375 358.847656 197.652344 358.484375 196.933594 C 358.113281 196.21875 357.746094 195.503906 357.382812 194.800781 C 357.203125 194.449219 357.019531 194.09375 356.835938 193.75 C 356.636719 193.398438 356.445312 193.0625 356.253906 192.71875 C 355.46875 191.359375 354.695312 190.023438 353.9375 188.707031 C 353.191406 187.386719 352.363281 186.140625 351.574219 184.90625 C 350.773438 183.675781 349.988281 182.472656 349.21875 181.289062 C 348.402344 180.144531 347.597656 179.027344 346.816406 177.925781 C 346.421875 177.382812 346.03125 176.839844 345.640625 176.304688 C 345.449219 176.042969 345.253906 175.773438 345.066406 175.511719 C 344.871094 175.253906 344.667969 175.003906 344.46875 174.75 C 343.667969 173.746094 342.890625 172.761719 342.136719 171.8125 C 341.363281 170.871094 340.652344 169.925781 339.886719 169.078125 C 338.378906 167.355469 336.96875 165.742188 335.636719 164.28125 C 334.261719 162.855469 333 161.550781 331.851562 160.371094 C 330.726562 159.183594 329.625 158.210938 328.707031 157.328125 C 327.769531 156.460938 326.976562 155.722656 326.332031 155.125 C 325.695312 154.519531 325.175781 154.085938 324.832031 153.789062 C 324.488281 153.5 324.308594 153.34375 324.308594 153.34375 L 315.214844 163.8125 C 315.214844 163.8125 315.378906 163.957031 315.6875 164.21875 C 316.003906 164.488281 316.472656 164.875 317.050781 165.425781 C 317.628906 165.964844 318.347656 166.636719 319.191406 167.421875 C 320.03125 168.222656 321.023438 169.097656 322.042969 170.179688 C 323.082031 171.246094 324.222656 172.425781 325.472656 173.710938 C 326.675781 175.042969 327.949219 176.503906 329.316406 178.058594 C 330.011719 178.824219 330.652344 179.683594 331.351562 180.535156 C 332.035156 181.398438 332.742188 182.28125 333.464844 183.191406 C 333.640625 183.417969 333.824219 183.648438 334.003906 183.882812 C 334.175781 184.117188 334.351562 184.355469 334.527344 184.601562 C 334.871094 185.085938 335.226562 185.574219 335.582031 186.066406 C 336.296875 187.058594 337.019531 188.074219 337.761719 189.109375 C 338.457031 190.175781 339.167969 191.273438 339.890625 192.386719 C 340.605469 193.5 341.359375 194.621094 342.027344 195.824219 C 342.71875 197.011719 343.414062 198.222656 344.125 199.453125 C 344.300781 199.761719 344.480469 200.070312 344.652344 200.382812 C 344.820312 200.695312 344.980469 201.015625 345.148438 201.335938 C 345.480469 201.972656 345.808594 202.621094 346.144531 203.269531 C 346.476562 203.917969 346.808594 204.570312 347.148438 205.234375 C 347.316406 205.5625 347.480469 205.890625 347.648438 206.222656 C 347.804688 206.5625 347.960938 206.902344 348.117188 207.246094 C 348.730469 208.605469 349.355469 209.988281 349.984375 211.382812 C 350.140625 211.734375 350.300781 212.082031 350.449219 212.433594 C 350.589844 212.792969 350.738281 213.152344 350.878906 213.511719 C 351.160156 214.230469 351.445312 214.953125 351.726562 215.679688 C 352.292969 217.136719 352.898438 218.59375 353.378906 220.105469 C 355.496094 226.089844 357.234375 232.421875 358.496094 238.988281 C 359.761719 245.546875 360.539062 252.320312 360.792969 259.113281 C 361.046875 265.90625 360.777344 272.726562 360.011719 279.371094 C 359.230469 286.015625 357.949219 292.492188 356.285156 298.632812 C 354.621094 304.773438 352.570312 310.59375 350.289062 315.953125 C 348.007812 321.316406 345.5 326.234375 342.949219 330.636719 C 342.300781 331.726562 341.691406 332.816406 341.035156 333.839844 C 340.382812 334.867188 339.75 335.875 339.128906 336.851562 C 338.917969 337.167969 338.710938 337.472656 338.503906 337.78125 C 335.253906 337.855469 332.0625 339.324219 329.882812 342.066406 C 325.980469 346.972656 326.796875 354.113281 331.707031 358.015625 C 336.617188 361.917969 343.757812 361.101562 347.660156 356.191406 C 350.027344 353.207031 350.652344 349.40625 349.683594 346.007812 C 350.027344 345.492188 350.375 344.976562 350.734375 344.453125 C 351.417969 343.371094 352.117188 342.261719 352.835938 341.125 C 353.554688 339.992188 354.230469 338.796875 354.953125 337.589844 C 357.765625 332.730469 360.535156 327.304688 363.054688 321.382812 C 365.574219 315.457031 367.835938 309.042969 369.671875 302.257812 C 371.511719 295.476562 372.921875 288.324219 373.789062 280.976562 C 374.632812 273.636719 374.933594 266.105469 374.652344 258.59375 C 374.375 251.085938 373.511719 243.601562 372.117188 236.359375 Z M 288.363281 313.242188 C 286.78125 315.226562 283.890625 315.558594 281.902344 313.976562 C 279.917969 312.398438 279.585938 309.511719 281.167969 307.523438 C 282.746094 305.535156 285.632812 305.207031 287.621094 306.785156 C 289.605469 308.363281 289.941406 311.253906 288.363281 313.242188 Z M 293.5 287.324219 C 293.429688 287.539062 293.324219 287.855469 293.164062 288.246094 C 293.011719 288.640625 292.828125 289.117188 292.617188 289.667969 C 292.410156 290.21875 292.128906 290.820312 291.855469 291.492188 C 290.710938 294.148438 289 297.632812 286.925781 300.894531 C 286.519531 301.539062 286.109375 302.167969 285.6875 302.792969 C 283.140625 302.484375 280.488281 303.460938 278.769531 305.621094 C 276.136719 308.925781 276.6875 313.746094 280 316.375 C 283.308594 319.003906 288.128906 318.453125 290.753906 315.144531 C 292.578125 312.851562 292.871094 309.832031 291.773438 307.316406 C 292.308594 306.53125 292.835938 305.730469 293.347656 304.914062 C 295.648438 301.292969 297.546875 297.4375 298.816406 294.492188 C 299.113281 293.75 299.425781 293.078125 299.65625 292.46875 C 299.890625 291.863281 300.09375 291.332031 300.261719 290.894531 C 300.433594 290.457031 300.554688 290.109375 300.632812 289.875 C 300.714844 289.636719 300.757812 289.507812 300.757812 289.507812 L 293.613281 286.996094 C 293.613281 286.996094 293.574219 287.109375 293.5 287.324219 Z M 196.191406 135.078125 C 196.984375 134.902344 197.777344 134.71875 198.574219 134.539062 C 199.367188 134.359375 200.160156 134.1875 200.949219 134.007812 L 202.136719 133.746094 C 202.53125 133.660156 202.9375 133.601562 203.332031 133.523438 C 204.925781 133.25 206.519531 132.976562 208.109375 132.703125 C 208.898438 132.554688 209.695312 132.472656 210.496094 132.371094 C 211.289062 132.277344 212.082031 132.175781 212.875 132.082031 C 213.664062 131.988281 214.460938 131.894531 215.242188 131.800781 C 216.03125 131.722656 216.828125 131.679688 217.609375 131.613281 C 219.191406 131.503906 220.753906 131.382812 222.308594 131.304688 C 223.867188 131.265625 225.414062 131.230469 226.949219 131.199219 C 228.488281 131.148438 230.003906 131.203125 231.511719 131.246094 C 232.269531 131.269531 233.015625 131.292969 233.761719 131.316406 C 234.507812 131.335938 235.25 131.355469 235.984375 131.421875 C 238.929688 131.648438 241.816406 131.832031 244.601562 132.242188 C 245.300781 132.332031 245.988281 132.421875 246.679688 132.511719 C 247.367188 132.597656 248.050781 132.675781 248.71875 132.804688 C 250.066406 133.042969 251.390625 133.28125 252.691406 133.511719 C 253.34375 133.628906 253.988281 133.730469 254.625 133.871094 C 255.257812 134.011719 255.886719 134.15625 256.507812 134.292969 C 257.753906 134.582031 258.972656 134.859375 260.167969 135.136719 C 269.695312 137.503906 277.316406 140.539062 282.507812 142.910156 C 283.164062 143.203125 283.78125 143.476562 284.359375 143.730469 C 284.941406 143.996094 285.46875 144.277344 285.964844 144.515625 C 286.964844 145.015625 287.804688 145.4375 288.488281 145.78125 C 289.175781 146.125 289.695312 146.386719 290.050781 146.566406 C 290.40625 146.738281 290.578125 146.847656 290.578125 146.847656 L 297.109375 134.609375 C 297.109375 134.609375 296.914062 134.492188 296.527344 134.300781 C 296.136719 134.101562 295.558594 133.8125 294.800781 133.429688 C 294.046875 133.050781 293.117188 132.585938 292.015625 132.035156 C 291.46875 131.773438 290.882812 131.460938 290.246094 131.175781 C 289.601562 130.886719 288.921875 130.582031 288.203125 130.257812 C 282.46875 127.648438 274.054688 124.292969 263.535156 121.675781 C 262.214844 121.375 260.867188 121.066406 259.492188 120.746094 C 258.804688 120.597656 258.109375 120.4375 257.410156 120.28125 C 256.710938 120.132812 255.996094 120.015625 255.277344 119.882812 C 253.835938 119.628906 252.375 119.371094 250.886719 119.109375 C 250.148438 118.964844 249.390625 118.878906 248.628906 118.777344 C 247.875 118.679688 247.109375 118.578125 246.335938 118.476562 C 243.261719 118.035156 240.070312 117.820312 236.816406 117.574219 C 236.003906 117.503906 235.183594 117.488281 234.359375 117.457031 C 233.535156 117.429688 232.707031 117.40625 231.875 117.382812 C 230.207031 117.335938 228.527344 117.277344 226.832031 117.332031 C 225.136719 117.371094 223.429688 117.40625 221.703125 117.445312 C 219.984375 117.535156 218.253906 117.664062 216.511719 117.789062 C 215.644531 117.859375 214.769531 117.910156 213.894531 117.992188 C 213.027344 118.097656 212.152344 118.203125 211.28125 118.304688 C 210.402344 118.414062 209.527344 118.515625 208.648438 118.625 C 207.769531 118.738281 206.882812 118.832031 206.007812 118.996094 C 204.261719 119.292969 202.503906 119.597656 200.738281 119.902344 C 200.300781 119.980469 199.855469 120.050781 199.417969 120.140625 L 198.105469 120.433594 C 197.234375 120.625 196.359375 120.820312 195.480469 121.019531 C 194.605469 121.214844 193.734375 121.417969 192.855469 121.621094 C 191.976562 121.8125 191.121094 122.078125 190.253906 122.304688 C 188.523438 122.796875 186.792969 123.277344 185.0625 123.765625 L 189.125 137.027344 C 190.695312 136.589844 192.265625 136.144531 193.832031 135.707031 C 194.621094 135.5 195.394531 135.253906 196.191406 135.078125 Z M 246.488281 189.203125 C 246.210938 189.144531 245.914062 189.078125 245.601562 189.007812 C 244.964844 188.863281 244.246094 188.699219 243.46875 188.515625 C 242.683594 188.359375 241.828125 188.226562 240.925781 188.058594 C 240.476562 187.980469 240.007812 187.894531 239.539062 187.808594 C 239.058594 187.753906 238.570312 187.691406 238.078125 187.632812 C 236.101562 187.332031 233.972656 187.199219 231.851562 187.042969 C 227.59375 186.804688 223.332031 187.078125 220.152344 187.375 C 219.359375 187.472656 218.632812 187.5625 217.984375 187.640625 C 217.664062 187.675781 217.359375 187.710938 217.082031 187.742188 C 216.800781 187.78125 216.542969 187.832031 216.316406 187.875 C 215.394531 188.035156 214.867188 188.128906 214.867188 188.128906 L 216.179688 195.589844 C 216.179688 195.589844 216.652344 195.503906 217.484375 195.359375 C 217.691406 195.320312 217.917969 195.269531 218.171875 195.238281 C 218.421875 195.207031 218.695312 195.179688 218.984375 195.148438 C 219.566406 195.078125 220.222656 194.996094 220.9375 194.90625 C 223.800781 194.644531 227.640625 194.390625 231.472656 194.613281 C 235.308594 194.804688 239.113281 195.390625 241.945312 195.9375 C 242.644531 196.097656 243.292969 196.246094 243.863281 196.382812 C 244.148438 196.445312 244.417969 196.507812 244.664062 196.558594 C 244.914062 196.609375 245.140625 196.660156 245.339844 196.726562 C 246.15625 196.960938 246.613281 197.09375 246.613281 197.09375 L 248.652344 189.796875 C 248.652344 189.796875 248.136719 189.652344 247.238281 189.394531 C 247.011719 189.320312 246.765625 189.261719 246.488281 189.203125 Z M 275.070312 212.886719 C 275.421875 213.214844 275.773438 213.542969 276.121094 213.871094 C 276.472656 214.195312 276.832031 214.511719 277.148438 214.863281 C 277.800781 215.550781 278.457031 216.214844 279.089844 216.855469 C 280.257812 218.222656 281.421875 219.4375 282.277344 220.601562 C 282.730469 221.15625 283.140625 221.675781 283.503906 222.128906 C 283.84375 222.605469 284.140625 223.023438 284.382812 223.367188 C 284.875 224.042969 285.160156 224.433594 285.160156 224.433594 L 291.382812 220.121094 C 291.382812 220.121094 291.074219 219.6875 290.523438 218.933594 C 290.253906 218.550781 289.925781 218.089844 289.550781 217.566406 C 289.148438 217.058594 288.6875 216.484375 288.1875 215.859375 C 287.234375 214.578125 285.949219 213.226562 284.648438 211.707031 C 283.941406 210.996094 283.222656 210.253906 282.496094 209.496094 C 282.140625 209.109375 281.746094 208.757812 281.351562 208.394531 C 280.96875 208.035156 280.578125 207.667969 280.1875 207.304688 C 277.03125 204.425781 273.628906 201.8125 270.957031 200.039062 C 270.632812 199.796875 270.304688 199.597656 269.996094 199.410156 C 269.679688 199.214844 269.390625 199.03125 269.113281 198.859375 C 268.558594 198.511719 268.078125 198.207031 267.683594 197.957031 C 267.484375 197.824219 267.308594 197.722656 267.144531 197.636719 C 266.984375 197.546875 266.851562 197.472656 266.738281 197.414062 C 266.523438 197.289062 266.40625 197.230469 266.40625 197.230469 L 262.632812 203.796875 C 262.632812 203.796875 262.742188 203.855469 262.9375 203.964844 C 263.039062 204.023438 263.160156 204.085938 263.304688 204.167969 C 263.449219 204.242188 263.609375 204.335938 263.789062 204.453125 C 264.148438 204.679688 264.578125 204.957031 265.078125 205.269531 C 265.324219 205.425781 265.59375 205.589844 265.875 205.765625 C 266.15625 205.933594 266.453125 206.117188 266.742188 206.332031 C 269.152344 207.933594 272.226562 210.292969 275.070312 212.886719 " fill-opacity="1" fill-rule="nonzero"/><path fill="#ffffff" d="M 71.832031 233.382812 C 74.195312 232.453125 76.863281 233.613281 77.792969 235.96875 C 78.726562 238.332031 77.566406 241 75.207031 241.929688 C 72.847656 242.863281 70.175781 241.707031 69.246094 239.34375 C 68.3125 236.984375 69.472656 234.316406 71.832031 233.382812 Z M 72.667969 245.261719 C 73.082031 246.117188 73.515625 246.976562 73.96875 247.828125 C 75.949219 251.628906 78.339844 255.195312 80.257812 257.769531 C 80.75 258.40625 81.171875 259.007812 81.585938 259.515625 C 81.996094 260.015625 82.355469 260.457031 82.648438 260.824219 C 82.9375 261.195312 83.179688 261.46875 83.347656 261.65625 C 83.511719 261.84375 83.597656 261.949219 83.597656 261.949219 L 89.347656 257.015625 C 89.347656 257.015625 89.269531 256.925781 89.121094 256.757812 C 88.96875 256.585938 88.75 256.339844 88.492188 256.003906 C 88.226562 255.675781 87.902344 255.277344 87.53125 254.820312 C 87.15625 254.367188 86.777344 253.820312 86.332031 253.25 C 84.601562 250.925781 82.441406 247.703125 80.65625 244.273438 C 80.300781 243.601562 79.957031 242.933594 79.628906 242.253906 C 81.175781 240.199219 81.652344 237.417969 80.640625 234.847656 C 79.089844 230.917969 74.644531 228.984375 70.710938 230.535156 C 66.777344 232.089844 64.847656 236.53125 66.398438 240.464844 C 67.476562 243.195312 69.945312 244.957031 72.667969 245.261719 Z M 10.460938 258.71875 C 13.960938 257.339844 17.917969 259.054688 19.300781 262.558594 C 20.683594 266.058594 18.960938 270.011719 15.460938 271.394531 C 11.960938 272.777344 8.003906 271.058594 6.621094 267.558594 C 5.242188 264.054688 6.960938 260.101562 10.460938 258.71875 Z M 2.398438 269.222656 C 3.796875 272.765625 6.777344 275.210938 10.210938 276.066406 C 10.480469 276.621094 10.753906 277.183594 11.03125 277.753906 C 11.625 278.886719 12.230469 280.050781 12.855469 281.242188 C 13.480469 282.429688 14.175781 283.613281 14.867188 284.839844 C 17.667969 289.707031 20.980469 294.816406 24.851562 299.960938 C 28.71875 305.101562 33.144531 310.273438 38.101562 315.257812 C 43.054688 320.242188 48.542969 325.035156 54.472656 329.457031 C 60.410156 333.863281 66.78125 337.890625 73.425781 341.398438 C 80.066406 344.910156 86.980469 347.90625 93.949219 350.320312 C 100.925781 352.738281 107.929688 354.570312 114.816406 355.847656 C 116.523438 356.21875 118.253906 356.449219 119.953125 356.714844 C 120.804688 356.84375 121.65625 356.972656 122.496094 357.097656 C 122.917969 357.160156 123.339844 357.21875 123.761719 357.28125 C 124.183594 357.332031 124.605469 357.371094 125.023438 357.417969 C 126.707031 357.585938 128.371094 357.753906 130.015625 357.921875 C 130.429688 357.957031 130.839844 357.996094 131.25 358.03125 C 131.65625 358.054688 132.066406 358.078125 132.472656 358.105469 C 133.289062 358.144531 134.101562 358.183594 134.90625 358.226562 C 135.714844 358.261719 136.511719 358.304688 137.308594 358.339844 C 137.703125 358.355469 138.101562 358.375 138.496094 358.394531 C 138.890625 358.394531 139.28125 358.398438 139.675781 358.398438 C 141.242188 358.398438 142.785156 358.398438 144.304688 358.398438 C 145.824219 358.417969 147.316406 358.324219 148.78125 358.253906 C 150.246094 358.175781 151.679688 358.097656 153.085938 358.027344 C 154.488281 357.886719 155.859375 357.753906 157.203125 357.621094 C 157.875 357.554688 158.539062 357.488281 159.191406 357.417969 C 159.519531 357.382812 159.84375 357.351562 160.167969 357.3125 C 160.492188 357.277344 160.808594 357.226562 161.128906 357.183594 C 162.398438 356.988281 163.636719 356.804688 164.839844 356.628906 C 166.039062 356.4375 167.210938 356.289062 168.332031 356.050781 C 170.574219 355.605469 172.675781 355.191406 174.609375 354.769531 C 176.53125 354.289062 178.292969 353.847656 179.886719 353.449219 C 181.484375 353.0625 182.875 352.597656 184.097656 352.242188 C 185.316406 351.863281 186.351562 351.550781 187.195312 351.292969 C 188.035156 351.035156 188.667969 350.800781 189.097656 350.65625 C 189.523438 350.5 189.746094 350.425781 189.746094 350.425781 L 185.222656 337.3125 C 185.222656 337.3125 185.023438 337.386719 184.636719 337.523438 C 184.25 337.65625 183.679688 337.871094 182.914062 338.09375 C 182.152344 338.328125 181.214844 338.617188 180.109375 338.957031 C 179.003906 339.28125 177.746094 339.703125 176.296875 340.050781 C 174.855469 340.414062 173.261719 340.8125 171.523438 341.246094 C 169.773438 341.628906 167.871094 342 165.839844 342.402344 C 164.828125 342.625 163.765625 342.75 162.679688 342.929688 C 161.589844 343.089844 160.472656 343.257812 159.320312 343.425781 C 159.035156 343.46875 158.742188 343.515625 158.453125 343.554688 C 158.160156 343.582031 157.863281 343.613281 157.570312 343.644531 C 156.976562 343.703125 156.375 343.765625 155.769531 343.828125 C 154.554688 343.949219 153.3125 344.070312 152.042969 344.191406 C 150.769531 344.265625 149.472656 344.332031 148.148438 344.398438 C 146.820312 344.460938 145.472656 344.550781 144.097656 344.53125 C 142.722656 344.53125 141.328125 344.53125 139.90625 344.53125 C 139.550781 344.53125 139.195312 344.527344 138.839844 344.527344 C 138.480469 344.511719 138.125 344.492188 137.765625 344.480469 C 137.046875 344.441406 136.320312 344.410156 135.59375 344.371094 C 134.863281 344.332031 134.128906 344.296875 133.390625 344.257812 C 133.019531 344.242188 132.648438 344.222656 132.277344 344.203125 C 131.910156 344.164062 131.539062 344.132812 131.164062 344.09375 C 129.675781 343.945312 128.167969 343.792969 126.644531 343.644531 C 126.261719 343.601562 125.882812 343.570312 125.5 343.519531 C 125.121094 343.464844 124.738281 343.410156 124.355469 343.351562 C 123.589844 343.234375 122.820312 343.121094 122.050781 343.003906 C 120.511719 342.761719 118.941406 342.558594 117.394531 342.21875 C 111.152344 341.0625 104.796875 339.402344 98.484375 337.210938 C 92.171875 335.023438 85.914062 332.3125 79.902344 329.136719 C 73.890625 325.960938 68.125 322.316406 62.75 318.328125 C 57.386719 314.328125 52.421875 309.984375 47.933594 305.46875 C 43.445312 300.960938 39.4375 296.277344 35.933594 291.621094 C 32.429688 286.960938 29.425781 282.332031 26.886719 277.921875 C 26.265625 276.816406 25.632812 275.746094 25.066406 274.664062 C 24.503906 273.582031 23.949219 272.53125 23.414062 271.503906 C 23.246094 271.164062 23.085938 270.832031 22.921875 270.503906 C 24.480469 267.644531 24.808594 264.152344 23.523438 260.890625 C 21.222656 255.0625 14.628906 252.195312 8.796875 254.496094 C 2.964844 256.796875 0.0976562 263.390625 2.398438 269.222656 Z M 218.042969 320.636719 C 217.527344 321.003906 217.019531 321.324219 216.558594 321.636719 C 215.632812 322.246094 214.84375 322.765625 214.207031 323.183594 C 213.566406 323.609375 213.078125 323.929688 212.746094 324.144531 C 212.414062 324.367188 212.238281 324.460938 212.238281 324.460938 L 219.570312 336.234375 C 219.570312 336.234375 219.765625 336.128906 220.128906 335.882812 C 220.496094 335.648438 221.035156 335.289062 221.746094 334.832031 C 222.449219 334.367188 223.320312 333.789062 224.34375 333.117188 C 224.851562 332.773438 225.402344 332.421875 225.976562 332.011719 C 226.546875 331.597656 227.152344 331.164062 227.792969 330.695312 C 232.921875 327.039062 240.027344 321.429688 247.558594 313.625 C 248.480469 312.632812 249.425781 311.621094 250.382812 310.59375 C 250.859375 310.070312 251.339844 309.546875 251.828125 309.023438 C 252.308594 308.488281 252.769531 307.925781 253.242188 307.375 C 254.183594 306.253906 255.136719 305.113281 256.109375 303.957031 C 256.601562 303.390625 257.050781 302.773438 257.523438 302.167969 C 257.988281 301.5625 258.453125 300.945312 258.929688 300.332031 C 260.847656 297.886719 262.628906 295.234375 264.464844 292.539062 C 264.9375 291.871094 265.363281 291.171875 265.800781 290.472656 C 266.230469 289.765625 266.667969 289.0625 267.109375 288.351562 C 267.980469 286.933594 268.871094 285.511719 269.675781 284.011719 C 270.488281 282.527344 271.308594 281.023438 272.136719 279.515625 C 272.921875 277.980469 273.671875 276.417969 274.433594 274.851562 C 274.808594 274.0625 275.203125 273.277344 275.566406 272.480469 C 275.910156 271.675781 276.253906 270.867188 276.609375 270.054688 C 276.949219 269.246094 277.300781 268.433594 277.648438 267.617188 C 277.984375 266.800781 278.347656 265.988281 278.644531 265.152344 C 279.257812 263.484375 279.875 261.8125 280.496094 260.128906 C 280.644531 259.710938 280.804688 259.292969 280.945312 258.867188 L 281.347656 257.585938 C 281.617188 256.734375 281.882812 255.878906 282.152344 255.023438 C 282.417969 254.164062 282.683594 253.304688 282.945312 252.445312 C 283.21875 251.589844 283.414062 250.714844 283.652344 249.847656 C 284.097656 248.109375 284.539062 246.363281 284.984375 244.625 L 271.46875 241.511719 C 271.066406 243.089844 270.660156 244.667969 270.257812 246.246094 C 270.046875 247.03125 269.867188 247.828125 269.617188 248.601562 C 269.378906 249.382812 269.140625 250.160156 268.898438 250.9375 C 268.65625 251.710938 268.417969 252.488281 268.171875 253.261719 L 267.804688 254.421875 C 267.679688 254.808594 267.535156 255.183594 267.394531 255.5625 C 266.839844 257.085938 266.277344 258.601562 265.722656 260.109375 C 265.457031 260.871094 265.128906 261.605469 264.816406 262.34375 C 264.503906 263.078125 264.1875 263.816406 263.878906 264.550781 C 263.5625 265.28125 263.25 266.015625 262.933594 266.746094 C 262.609375 267.46875 262.253906 268.175781 261.910156 268.890625 C 261.21875 270.308594 260.542969 271.722656 259.835938 273.113281 C 259.085938 274.480469 258.339844 275.839844 257.601562 277.183594 C 256.882812 278.539062 256.070312 279.828125 255.28125 281.109375 C 254.882812 281.753906 254.492188 282.386719 254.097656 283.027344 C 253.703125 283.660156 253.316406 284.292969 252.890625 284.894531 C 251.222656 287.332031 249.621094 289.738281 247.878906 291.945312 C 247.453125 292.507812 247.027344 293.0625 246.605469 293.613281 C 246.183594 294.164062 245.773438 294.71875 245.328125 295.234375 C 244.449219 296.277344 243.585938 297.304688 242.730469 298.320312 C 242.300781 298.824219 241.886719 299.332031 241.453125 299.816406 C 241.011719 300.292969 240.574219 300.761719 240.140625 301.234375 C 239.273438 302.167969 238.421875 303.085938 237.585938 303.980469 C 230.773438 311.046875 224.328125 316.128906 219.683594 319.445312 C 219.105469 319.863281 218.554688 320.257812 218.042969 320.636719 Z M 49.273438 258.164062 C 53.953125 255.816406 59.648438 257.710938 61.996094 262.390625 C 64.34375 267.066406 62.453125 272.765625 57.773438 275.109375 C 53.09375 277.460938 47.394531 275.566406 45.050781 270.886719 C 42.703125 266.207031 44.597656 260.511719 49.273438 258.164062 Z M 53.589844 282.429688 C 55.414062 284.714844 57.398438 287.027344 59.5625 289.335938 C 59.804688 289.597656 60.050781 289.859375 60.292969 290.125 C 60.546875 290.382812 60.800781 290.636719 61.054688 290.894531 C 61.566406 291.410156 62.082031 291.933594 62.597656 292.453125 C 63.113281 292.980469 63.667969 293.480469 64.207031 293.996094 C 64.753906 294.507812 65.292969 295.03125 65.855469 295.539062 C 66.421875 296.042969 66.996094 296.550781 67.570312 297.0625 C 67.859375 297.316406 68.148438 297.570312 68.441406 297.828125 C 68.738281 298.078125 69.039062 298.328125 69.335938 298.574219 C 69.9375 299.066406 70.542969 299.570312 71.15625 300.074219 C 71.769531 300.578125 72.40625 301.050781 73.039062 301.542969 C 74.296875 302.539062 75.625 303.46875 76.957031 304.433594 C 77.617188 304.921875 78.320312 305.359375 79.007812 305.828125 C 79.703125 306.285156 80.386719 306.769531 81.101562 307.207031 C 82.535156 308.09375 83.96875 309.015625 85.472656 309.847656 C 86.222656 310.273438 86.960938 310.722656 87.734375 311.128906 C 88.503906 311.53125 89.277344 311.945312 90.050781 312.351562 C 102.550781 318.796875 117.367188 323.394531 133.449219 324.644531 C 149.507812 325.90625 166.78125 323.613281 183.167969 317.222656 C 191.34375 313.996094 199.289062 309.792969 206.730469 304.652344 C 214.128906 299.453125 221.035156 293.351562 227.148438 286.433594 C 227.890625 285.546875 228.632812 284.664062 229.378906 283.78125 L 230.492188 282.453125 L 231.542969 281.070312 C 232.25 280.152344 232.949219 279.230469 233.652344 278.304688 C 234.328125 277.367188 234.972656 276.398438 235.636719 275.445312 C 236.992188 273.554688 238.164062 271.539062 239.394531 269.5625 L 239.855469 268.816406 L 240.277344 268.054688 L 241.121094 266.519531 L 241.964844 264.988281 C 242.242188 264.472656 242.542969 263.972656 242.785156 263.441406 C 247.011719 255.113281 250.25 246.238281 252.386719 237.121094 L 234.894531 233.09375 C 233.085938 240.792969 230.359375 248.25 226.8125 255.253906 C 226.613281 255.699219 226.355469 256.121094 226.121094 256.554688 L 225.410156 257.839844 L 224.703125 259.128906 L 224.347656 259.773438 L 223.964844 260.398438 C 222.917969 262.054688 221.945312 263.753906 220.800781 265.339844 C 220.242188 266.136719 219.707031 266.957031 219.136719 267.75 C 218.546875 268.523438 217.953125 269.296875 217.363281 270.070312 L 216.480469 271.234375 L 215.539062 272.347656 C 214.914062 273.09375 214.289062 273.835938 213.664062 274.578125 C 208.523438 280.402344 202.707031 285.535156 196.484375 289.921875 C 190.210938 294.246094 183.511719 297.785156 176.636719 300.503906 C 162.832031 305.878906 148.335938 307.804688 134.828125 306.753906 C 133.984375 306.664062 133.144531 306.578125 132.308594 306.496094 C 131.890625 306.453125 131.46875 306.414062 131.054688 306.375 C 130.636719 306.332031 130.21875 306.296875 129.804688 306.222656 C 128.980469 306.097656 128.15625 305.972656 127.335938 305.847656 C 126.921875 305.785156 126.515625 305.726562 126.105469 305.664062 L 125.492188 305.570312 L 124.882812 305.445312 C 124.074219 305.28125 123.273438 305.117188 122.46875 304.953125 C 122.066406 304.875 121.667969 304.789062 121.265625 304.710938 L 120.667969 304.59375 L 120.074219 304.441406 C 119.289062 304.25 118.503906 304.050781 117.71875 303.859375 C 116.9375 303.664062 116.171875 303.421875 115.402344 303.207031 C 115.019531 303.097656 114.636719 302.992188 114.253906 302.882812 C 113.871094 302.769531 113.496094 302.640625 113.121094 302.515625 C 112.367188 302.273438 111.617188 302.03125 110.871094 301.789062 C 109.40625 301.238281 107.925781 300.753906 106.511719 300.148438 C 103.644531 299.03125 100.914062 297.734375 98.277344 296.398438 C 97.625 296.050781 96.976562 295.710938 96.328125 295.367188 C 95.679688 295.03125 95.0625 294.648438 94.429688 294.296875 C 93.164062 293.597656 91.960938 292.816406 90.757812 292.078125 C 90.152344 291.710938 89.582031 291.296875 88.996094 290.917969 C 88.421875 290.523438 87.828125 290.15625 87.273438 289.742188 C 86.15625 288.929688 85.035156 288.15625 83.980469 287.316406 C 83.449219 286.894531 82.910156 286.503906 82.394531 286.078125 C 81.882812 285.65625 81.375 285.234375 80.867188 284.816406 C 80.613281 284.609375 80.363281 284.402344 80.113281 284.191406 C 79.867188 283.976562 79.625 283.757812 79.382812 283.546875 C 78.898438 283.113281 78.417969 282.691406 77.9375 282.269531 C 77.460938 281.839844 77.011719 281.394531 76.550781 280.96875 C 76.097656 280.53125 75.632812 280.113281 75.199219 279.671875 C 74.761719 279.230469 74.332031 278.792969 73.902344 278.355469 C 73.6875 278.140625 73.472656 277.921875 73.257812 277.707031 C 73.054688 277.488281 72.847656 277.265625 72.644531 277.046875 C 71.101562 275.402344 69.667969 273.757812 68.328125 272.121094 C 69.792969 268.164062 69.683594 263.628906 67.640625 259.558594 C 63.730469 251.761719 54.242188 248.609375 46.445312 252.519531 C 38.648438 256.433594 35.5 265.921875 39.40625 273.714844 C 42.183594 279.257812 47.785156 282.449219 53.589844 282.429688 Z M 197.058594 265.65625 C 197.234375 265.5 197.410156 265.3125 197.601562 265.101562 C 197.789062 264.894531 197.996094 264.667969 198.214844 264.429688 C 198.660156 263.953125 199.160156 263.414062 199.703125 262.832031 C 200.234375 262.230469 200.773438 261.554688 201.371094 260.851562 C 201.667969 260.503906 201.972656 260.148438 202.28125 259.777344 C 202.574219 259.398438 202.867188 259.003906 203.164062 258.601562 C 204.414062 257.042969 205.59375 255.261719 206.789062 253.5 C 209.128906 249.9375 211.019531 246.109375 212.355469 243.203125 C 212.664062 242.472656 212.953125 241.792969 213.210938 241.199219 C 213.335938 240.898438 213.457031 240.621094 213.570312 240.363281 C 213.679688 240.105469 213.753906 239.855469 213.839844 239.636719 C 214.160156 238.761719 214.34375 238.257812 214.34375 238.257812 L 207.226562 235.660156 C 207.226562 235.660156 207.0625 236.109375 206.773438 236.90625 C 206.699219 237.101562 206.632812 237.328125 206.535156 237.558594 C 206.433594 237.792969 206.324219 238.042969 206.207031 238.308594 C 205.976562 238.847656 205.714844 239.460938 205.4375 240.121094 C 204.234375 242.734375 202.53125 246.1875 200.429688 249.394531 C 198.335938 252.617188 195.933594 255.621094 194.042969 257.800781 C 193.550781 258.324219 193.097656 258.808594 192.699219 259.238281 C 192.5 259.453125 192.316406 259.65625 192.140625 259.84375 C 191.976562 260.035156 191.816406 260.203125 191.65625 260.347656 C 191.050781 260.933594 190.707031 261.265625 190.707031 261.265625 L 196.007812 266.679688 C 196.007812 266.679688 196.394531 266.308594 197.058594 265.65625 Z M 149.835938 288.371094 C 150.300781 288.328125 150.863281 288.273438 151.511719 288.210938 C 152.152344 288.117188 152.875 288.003906 153.664062 287.882812 C 155.253906 287.699219 157.070312 287.261719 159.035156 286.894531 C 160 286.644531 161.003906 286.390625 162.023438 286.136719 C 162.535156 286.027344 163.039062 285.859375 163.546875 285.699219 C 164.054688 285.542969 164.566406 285.386719 165.078125 285.234375 C 169.148438 283.941406 173.105469 282.300781 175.984375 280.875 C 176.351562 280.714844 176.691406 280.53125 177.011719 280.351562 C 177.335938 280.183594 177.640625 280.019531 177.929688 279.863281 C 178.503906 279.558594 179.007812 279.296875 179.421875 279.078125 C 179.632812 278.976562 179.816406 278.867188 179.96875 278.773438 C 180.125 278.679688 180.257812 278.601562 180.363281 278.535156 C 180.582031 278.402344 180.695312 278.339844 180.695312 278.339844 L 176.890625 271.789062 C 176.890625 271.789062 176.789062 271.847656 176.59375 271.96875 C 176.496094 272.023438 176.375 272.097656 176.234375 272.183594 C 176.097656 272.273438 175.933594 272.367188 175.742188 272.457031 C 175.371094 272.652344 174.914062 272.894531 174.394531 273.164062 C 174.132812 273.304688 173.859375 273.453125 173.566406 273.605469 C 173.277344 273.765625 172.972656 273.9375 172.640625 274.078125 C 170.042969 275.363281 166.472656 276.84375 162.800781 278.007812 C 162.339844 278.148438 161.878906 278.289062 161.421875 278.429688 C 160.964844 278.574219 160.511719 278.726562 160.046875 278.824219 C 159.128906 279.046875 158.226562 279.277344 157.355469 279.511719 C 155.585938 279.835938 153.949219 280.242188 152.519531 280.402344 C 151.804688 280.507812 151.15625 280.605469 150.578125 280.695312 C 149.996094 280.753906 149.488281 280.796875 149.070312 280.835938 C 148.234375 280.925781 147.757812 280.972656 147.757812 280.972656 L 148.378906 288.523438 C 148.378906 288.523438 148.910156 288.472656 149.835938 288.371094 Z M 99.023438 275.679688 C 99.414062 275.933594 99.878906 276.257812 100.421875 276.609375 C 100.972656 276.953125 101.597656 277.335938 102.273438 277.761719 C 102.957031 278.167969 103.71875 278.585938 104.507812 279.046875 C 105.304688 279.492188 106.167969 279.925781 107.042969 280.402344 C 107.496094 280.621094 107.953125 280.839844 108.414062 281.066406 C 108.878906 281.285156 109.335938 281.535156 109.820312 281.738281 C 110.785156 282.148438 111.742188 282.621094 112.742188 282.996094 C 116.691406 284.617188 120.796875 285.867188 123.941406 286.609375 C 124.722656 286.828125 125.453125 286.945312 126.09375 287.074219 C 126.734375 287.207031 127.292969 287.324219 127.753906 287.417969 C 128.671875 287.628906 129.207031 287.683594 129.207031 287.683594 L 130.472656 280.21875 C 130.472656 280.21875 129.992188 280.167969 129.164062 279.976562 C 128.746094 279.886719 128.242188 279.785156 127.664062 279.667969 C 127.082031 279.550781 126.421875 279.441406 125.71875 279.246094 C 122.875 278.578125 119.167969 277.445312 115.609375 275.984375 C 114.707031 275.648438 113.847656 275.21875 112.976562 274.851562 C 112.535156 274.671875 112.128906 274.441406 111.710938 274.246094 C 111.289062 274.042969 110.878906 273.847656 110.472656 273.652344 C 109.6875 273.214844 108.910156 272.832031 108.1875 272.425781 C 107.480469 272.007812 106.792969 271.636719 106.179688 271.269531 C 105.566406 270.886719 105.007812 270.539062 104.511719 270.234375 C 104.019531 269.914062 103.601562 269.625 103.25 269.390625 C 102.902344 269.164062 102.625 268.980469 102.4375 268.859375 C 102.257812 268.722656 102.160156 268.652344 102.160156 268.652344 L 97.8125 274.855469 C 97.8125 274.855469 97.921875 274.933594 98.121094 275.078125 C 98.332031 275.21875 98.636719 275.421875 99.023438 275.679688 " fill-opacity="1" fill-rule="nonzero"/><g clip-path="url(#0c53f8d15f)"><path fill="#ffffff" d="M 246.667969 91.753906 C 246.296875 94.265625 243.957031 95.996094 241.449219 95.625 C 238.933594 95.25 237.203125 92.914062 237.574219 90.402344 C 237.953125 87.890625 240.292969 86.160156 242.800781 86.535156 C 245.308594 86.90625 247.042969 89.246094 246.667969 91.753906 Z M 235.960938 86.539062 C 235.015625 86.46875 234.050781 86.410156 233.089844 86.378906 C 228.808594 86.195312 224.523438 86.484375 221.335938 86.859375 C 220.539062 86.964844 219.804688 87.03125 219.160156 87.136719 C 218.515625 87.238281 217.960938 87.328125 217.492188 87.40625 C 217.027344 87.464844 216.671875 87.539062 216.421875 87.585938 C 216.179688 87.640625 216.046875 87.660156 216.046875 87.660156 L 217.441406 95.109375 C 217.441406 95.109375 217.558594 95.082031 217.785156 95.042969 C 218.003906 94.992188 218.332031 94.929688 218.75 94.871094 C 219.167969 94.808594 219.671875 94.726562 220.257812 94.632812 C 220.835938 94.535156 221.496094 94.476562 222.214844 94.378906 C 225.089844 94.042969 228.960938 93.78125 232.824219 93.953125 C 233.582031 93.976562 234.339844 94.019531 235.085938 94.070312 C 236.097656 96.4375 238.261719 98.238281 240.996094 98.648438 C 245.175781 99.273438 249.070312 96.390625 249.695312 92.203125 C 250.316406 88.023438 247.429688 84.128906 243.25 83.507812 C 240.351562 83.078125 237.589844 84.332031 235.960938 86.539062 Z M 255.414062 25.933594 C 254.859375 29.660156 251.390625 32.230469 247.667969 31.675781 C 243.945312 31.121094 241.375 27.648438 241.933594 23.929688 C 242.484375 20.207031 245.957031 17.640625 249.675781 18.195312 C 253.398438 18.746094 255.96875 22.214844 255.414062 25.933594 Z M 250.34375 13.703125 C 246.582031 13.144531 242.972656 14.5 240.511719 17.042969 C 239.898438 17 239.277344 16.957031 238.644531 16.910156 C 237.363281 16.859375 236.054688 16.808594 234.710938 16.75 C 233.367188 16.695312 231.996094 16.710938 230.589844 16.691406 C 224.976562 16.683594 218.890625 16.996094 212.5 17.78125 C 206.117188 18.554688 199.429688 19.804688 192.628906 21.609375 C 185.835938 23.410156 178.9375 25.757812 172.148438 28.683594 C 165.363281 31.621094 158.6875 35.125 152.328125 39.125 C 145.964844 43.117188 139.917969 47.609375 134.339844 52.4375 C 128.761719 57.273438 123.667969 62.421875 119.121094 67.746094 C 117.945312 69.039062 116.882812 70.421875 115.800781 71.761719 C 115.261719 72.4375 114.726562 73.109375 114.199219 73.777344 C 113.933594 74.109375 113.667969 74.441406 113.40625 74.777344 C 113.148438 75.117188 112.90625 75.460938 112.65625 75.804688 C 111.667969 77.175781 110.691406 78.535156 109.726562 79.878906 C 109.488281 80.210938 109.25 80.546875 109.011719 80.882812 C 108.785156 81.230469 108.5625 81.574219 108.339844 81.914062 C 107.894531 82.597656 107.453125 83.28125 107.011719 83.953125 C 106.578125 84.636719 106.144531 85.308594 105.714844 85.980469 C 105.5 86.3125 105.289062 86.648438 105.074219 86.980469 C 104.875 87.324219 104.675781 87.660156 104.480469 88 C 103.695312 89.355469 102.921875 90.695312 102.164062 92.011719 C 101.390625 93.320312 100.726562 94.65625 100.054688 95.957031 C 99.390625 97.265625 98.734375 98.546875 98.097656 99.800781 C 97.515625 101.082031 96.945312 102.339844 96.386719 103.566406 C 96.113281 104.183594 95.839844 104.792969 95.570312 105.390625 C 95.4375 105.695312 95.300781 105.992188 95.171875 106.289062 C 95.042969 106.589844 94.929688 106.886719 94.808594 107.1875 C 94.335938 108.382812 93.878906 109.546875 93.433594 110.675781 C 93 111.8125 92.539062 112.902344 92.1875 113.992188 C 91.449219 116.15625 90.757812 118.1875 90.152344 120.070312 C 89.613281 121.972656 89.113281 123.722656 88.664062 125.300781 C 88.199219 126.878906 87.902344 128.316406 87.601562 129.550781 C 87.320312 130.792969 87.074219 131.851562 86.878906 132.707031 C 86.671875 133.5625 86.5625 134.222656 86.476562 134.671875 C 86.394531 135.117188 86.347656 135.347656 86.347656 135.347656 L 99.96875 137.992188 C 99.96875 137.992188 100.003906 137.78125 100.078125 137.375 C 100.15625 136.972656 100.253906 136.371094 100.441406 135.597656 C 100.621094 134.820312 100.84375 133.863281 101.101562 132.738281 C 101.375 131.617188 101.636719 130.316406 102.0625 128.890625 C 102.46875 127.464844 102.917969 125.878906 103.40625 124.15625 C 103.953125 122.453125 104.585938 120.617188 105.25 118.65625 C 105.566406 117.671875 105.984375 116.683594 106.375 115.652344 C 106.78125 114.628906 107.195312 113.578125 107.621094 112.496094 C 107.730469 112.230469 107.832031 111.957031 107.949219 111.683594 C 108.070312 111.417969 108.191406 111.144531 108.3125 110.871094 C 108.554688 110.332031 108.800781 109.78125 109.050781 109.222656 C 109.554688 108.109375 110.070312 106.972656 110.597656 105.8125 C 111.175781 104.675781 111.765625 103.515625 112.367188 102.335938 C 112.980469 101.15625 113.574219 99.945312 114.277344 98.761719 C 114.964844 97.574219 115.664062 96.359375 116.371094 95.136719 C 116.550781 94.824219 116.730469 94.519531 116.910156 94.210938 C 117.105469 93.910156 117.296875 93.609375 117.492188 93.304688 C 117.878906 92.703125 118.273438 92.089844 118.667969 91.476562 C 119.0625 90.863281 119.464844 90.246094 119.867188 89.625 C 120.066406 89.316406 120.269531 89.003906 120.472656 88.695312 C 120.6875 88.390625 120.90625 88.085938 121.121094 87.785156 C 121.996094 86.566406 122.878906 85.335938 123.773438 84.09375 C 124 83.78125 124.222656 83.472656 124.453125 83.160156 C 124.691406 82.859375 124.933594 82.558594 125.171875 82.253906 C 125.652344 81.652344 126.136719 81.042969 126.625 80.429688 C 127.605469 79.21875 128.5625 77.964844 129.632812 76.796875 C 133.753906 71.964844 138.371094 67.296875 143.425781 62.921875 C 148.476562 58.546875 153.949219 54.484375 159.707031 50.867188 C 165.464844 47.25 171.5 44.078125 177.644531 41.417969 C 183.789062 38.769531 190.035156 36.640625 196.183594 35.011719 C 202.339844 33.382812 208.398438 32.253906 214.183594 31.546875 C 219.96875 30.839844 225.480469 30.558594 230.566406 30.5625 C 231.839844 30.578125 233.085938 30.5625 234.300781 30.613281 C 235.519531 30.667969 236.707031 30.710938 237.863281 30.757812 C 238.238281 30.789062 238.609375 30.816406 238.980469 30.839844 C 240.671875 33.617188 243.53125 35.644531 247 36.160156 C 253.199219 37.085938 258.980469 32.808594 259.902344 26.605469 C 260.824219 20.40625 256.546875 14.628906 250.34375 13.703125 Z M 98 174.75 C 97.9375 174.117188 97.914062 173.519531 97.878906 172.964844 C 97.8125 171.863281 97.753906 170.917969 97.707031 170.152344 C 97.667969 169.390625 97.632812 168.804688 97.609375 168.410156 C 97.582031 168.015625 97.585938 167.808594 97.585938 167.808594 L 83.726562 168.273438 C 83.726562 168.273438 83.722656 168.5 83.75 168.933594 C 83.773438 169.371094 83.808594 170.015625 83.859375 170.859375 C 83.90625 171.703125 83.96875 172.746094 84.042969 173.96875 C 84.085938 174.574219 84.113281 175.234375 84.183594 175.933594 C 84.253906 176.636719 84.332031 177.375 84.414062 178.160156 C 85.015625 184.433594 86.320312 193.394531 89.316406 203.816406 C 89.710938 205.109375 90.117188 206.433594 90.53125 207.78125 C 90.742188 208.453125 90.953125 209.132812 91.167969 209.820312 C 91.386719 210.5 91.644531 211.175781 91.886719 211.867188 C 92.386719 213.238281 92.894531 214.632812 93.410156 216.050781 C 93.660156 216.765625 93.960938 217.460938 94.253906 218.171875 C 94.546875 218.878906 94.84375 219.589844 95.144531 220.308594 C 96.296875 223.191406 97.707031 226.0625 99.121094 229.003906 C 99.464844 229.746094 99.855469 230.464844 100.246094 231.191406 C 100.636719 231.917969 101.03125 232.648438 101.425781 233.382812 C 102.21875 234.847656 103.003906 236.335938 103.902344 237.773438 C 104.78125 239.226562 105.667969 240.6875 106.5625 242.15625 C 107.5 243.601562 108.480469 245.035156 109.457031 246.480469 C 109.949219 247.203125 110.429688 247.929688 110.945312 248.644531 C 111.46875 249.34375 111.992188 250.054688 112.519531 250.757812 C 113.050781 251.460938 113.582031 252.167969 114.113281 252.878906 C 114.652344 253.582031 115.171875 254.300781 115.75 254.976562 C 116.886719 256.339844 118.027344 257.710938 119.171875 259.085938 C 119.464844 259.425781 119.746094 259.773438 120.042969 260.105469 L 120.949219 261.097656 C 121.554688 261.757812 122.160156 262.417969 122.769531 263.078125 C 123.378906 263.738281 123.988281 264.394531 124.601562 265.050781 C 125.210938 265.71875 125.867188 266.324219 126.5 266.964844 C 127.785156 268.21875 129.070312 269.472656 130.359375 270.726562 L 139.808594 260.582031 C 138.644531 259.4375 137.480469 258.300781 136.316406 257.164062 C 135.742188 256.585938 135.140625 256.039062 134.59375 255.433594 C 134.039062 254.835938 133.488281 254.238281 132.933594 253.644531 C 132.382812 253.046875 131.832031 252.449219 131.285156 251.851562 L 130.464844 250.953125 C 130.191406 250.648438 129.9375 250.335938 129.675781 250.027344 C 128.640625 248.78125 127.605469 247.539062 126.578125 246.304688 C 126.050781 245.695312 125.582031 245.039062 125.09375 244.402344 C 124.613281 243.761719 124.132812 243.125 123.652344 242.484375 C 123.175781 241.847656 122.699219 241.207031 122.222656 240.574219 C 121.757812 239.929688 121.328125 239.265625 120.878906 238.613281 C 119.996094 237.304688 119.109375 236.011719 118.261719 234.707031 C 117.449219 233.371094 116.648438 232.046875 115.851562 230.734375 C 115.039062 229.433594 114.328125 228.085938 113.613281 226.761719 C 113.253906 226.101562 112.898438 225.4375 112.546875 224.78125 C 112.191406 224.121094 111.835938 223.46875 111.527344 222.800781 C 110.25 220.140625 108.96875 217.546875 107.925781 214.929688 C 107.65625 214.28125 107.386719 213.636719 107.121094 213 C 106.859375 212.355469 106.582031 211.726562 106.355469 211.082031 C 105.890625 209.796875 105.433594 208.53125 104.980469 207.289062 C 104.761719 206.667969 104.527344 206.050781 104.324219 205.433594 C 104.132812 204.816406 103.941406 204.199219 103.753906 203.589844 C 103.378906 202.371094 103.007812 201.175781 102.648438 200 C 99.9375 190.566406 98.757812 182.445312 98.210938 176.765625 C 98.136719 176.058594 98.066406 175.386719 98 174.75 Z M 236.484375 59.828125 C 236.175781 65.058594 231.691406 69.039062 226.464844 68.734375 C 221.238281 68.425781 217.253906 63.9375 217.558594 58.714844 C 217.871094 53.484375 222.355469 49.5 227.582031 49.808594 C 232.808594 50.113281 236.792969 54.601562 236.484375 59.828125 Z M 213.3125 51.433594 C 210.417969 51.867188 207.425781 52.429688 204.34375 53.152344 C 204 53.234375 203.648438 53.3125 203.296875 53.394531 C 202.949219 53.484375 202.601562 53.574219 202.25 53.667969 C 201.546875 53.847656 200.839844 54.035156 200.128906 54.222656 C 199.414062 54.40625 198.707031 54.636719 197.988281 54.84375 C 197.277344 55.0625 196.546875 55.261719 195.824219 55.496094 C 195.105469 55.742188 194.382812 55.980469 193.652344 56.226562 C 193.289062 56.347656 192.921875 56.46875 192.554688 56.589844 C 192.1875 56.730469 191.828125 56.863281 191.460938 57 C 190.726562 57.273438 189.992188 57.546875 189.253906 57.824219 C 188.507812 58.105469 187.78125 58.417969 187.039062 58.71875 C 185.546875 59.308594 184.074219 59.996094 182.574219 60.671875 C 181.824219 61 181.089844 61.382812 180.34375 61.746094 C 179.597656 62.121094 178.835938 62.46875 178.097656 62.871094 C 176.617188 63.667969 175.101562 64.449219 173.625 65.335938 C 172.886719 65.773438 172.125 66.191406 171.390625 66.652344 C 170.652344 67.113281 169.910156 67.578125 169.167969 68.046875 C 157.339844 75.648438 145.953125 86.1875 136.824219 99.484375 C 127.703125 112.761719 121.050781 128.871094 118.390625 146.253906 C 117.097656 154.949219 116.765625 163.929688 117.496094 172.945312 C 118.300781 181.953125 120.132812 190.988281 123.070312 199.738281 C 123.460938 200.820312 123.855469 201.910156 124.25 202.992188 L 124.84375 204.621094 L 125.511719 206.222656 C 125.957031 207.296875 126.40625 208.363281 126.855469 209.433594 C 127.328125 210.492188 127.847656 211.53125 128.339844 212.585938 C 129.300781 214.703125 130.457031 216.722656 131.554688 218.78125 L 131.972656 219.546875 L 132.421875 220.296875 L 133.324219 221.796875 L 134.230469 223.292969 C 134.539062 223.789062 134.824219 224.300781 135.164062 224.777344 C 140.261719 232.605469 146.324219 239.839844 153.15625 246.246094 L 165.386719 233.113281 C 159.625 227.699219 154.527344 221.609375 150.238281 215.039062 C 149.949219 214.636719 149.71875 214.207031 149.457031 213.789062 L 147.9375 211.269531 L 147.554688 210.644531 L 147.207031 209.996094 C 146.292969 208.261719 145.304688 206.574219 144.511719 204.789062 C 144.09375 203.90625 143.65625 203.03125 143.257812 202.144531 C 142.878906 201.242188 142.503906 200.34375 142.128906 199.445312 L 141.5625 198.097656 L 141.070312 196.726562 C 140.738281 195.8125 140.40625 194.898438 140.074219 193.988281 C 137.605469 186.625 136.066406 179.019531 135.382812 171.433594 C 134.773438 163.835938 135.054688 156.269531 136.136719 148.953125 C 138.382812 134.3125 143.964844 120.800781 151.632812 109.628906 C 152.128906 108.9375 152.621094 108.253906 153.113281 107.570312 C 153.359375 107.226562 153.601562 106.886719 153.847656 106.546875 C 154.09375 106.207031 154.328125 105.859375 154.597656 105.542969 C 155.121094 104.886719 155.644531 104.242188 156.164062 103.585938 C 156.421875 103.261719 156.679688 102.9375 156.9375 102.613281 L 157.320312 102.128906 L 157.734375 101.664062 C 158.28125 101.050781 158.824219 100.433594 159.367188 99.824219 C 159.640625 99.511719 159.910156 99.207031 160.179688 98.902344 L 160.582031 98.445312 L 161.007812 98.003906 C 161.570312 97.417969 162.132812 96.835938 162.691406 96.257812 C 163.25 95.675781 163.84375 95.136719 164.414062 94.578125 C 164.699219 94.292969 164.988281 94.023438 165.269531 93.746094 C 165.558594 93.46875 165.859375 93.210938 166.152344 92.941406 C 166.738281 92.414062 167.324219 91.886719 167.90625 91.363281 C 169.117188 90.363281 170.277344 89.328125 171.507812 88.40625 C 173.910156 86.476562 176.398438 84.765625 178.871094 83.148438 C 179.496094 82.757812 180.121094 82.367188 180.738281 81.976562 C 181.355469 81.582031 181.996094 81.242188 182.617188 80.871094 C 183.859375 80.125 185.132812 79.46875 186.375 78.796875 C 186.996094 78.453125 187.636719 78.167969 188.261719 77.851562 C 188.890625 77.550781 189.5 77.21875 190.140625 76.945312 C 191.398438 76.382812 192.632812 75.800781 193.886719 75.3125 C 194.515625 75.058594 195.128906 74.789062 195.75 74.554688 C 196.375 74.320312 196.996094 74.089844 197.609375 73.867188 C 197.914062 73.75 198.21875 73.632812 198.523438 73.523438 C 198.835938 73.417969 199.144531 73.316406 199.449219 73.210938 C 200.066406 73.003906 200.675781 72.804688 201.277344 72.601562 C 201.886719 72.398438 202.5 72.234375 203.101562 72.050781 C 203.707031 71.878906 204.296875 71.679688 204.898438 71.527344 C 205.496094 71.371094 206.09375 71.214844 206.683594 71.058594 C 206.980469 70.980469 207.273438 70.90625 207.566406 70.824219 C 207.863281 70.757812 208.15625 70.695312 208.449219 70.628906 C 210.644531 70.113281 212.785156 69.691406 214.875 69.351562 C 217.570312 72.601562 221.546875 74.765625 226.097656 75.035156 C 234.800781 75.546875 242.273438 68.902344 242.785156 60.199219 C 243.300781 51.496094 236.660156 44.015625 227.949219 43.503906 C 221.761719 43.140625 216.199219 46.394531 213.3125 51.433594 Z M 156.105469 184.070312 C 156.15625 184.300781 156.230469 184.546875 156.316406 184.8125 C 156.402344 185.082031 156.496094 185.371094 156.589844 185.679688 C 156.78125 186.308594 156.996094 187.007812 157.230469 187.773438 C 157.484375 188.53125 157.800781 189.335938 158.105469 190.199219 C 158.261719 190.632812 158.421875 191.082031 158.582031 191.53125 C 158.773438 191.972656 158.964844 192.421875 159.160156 192.882812 C 159.886719 194.75 160.835938 196.65625 161.765625 198.574219 C 163.6875 202.378906 166.054688 205.933594 167.902344 208.535156 C 168.382812 209.179688 168.820312 209.761719 169.210938 210.285156 C 169.40625 210.542969 169.585938 210.785156 169.753906 211.015625 C 169.925781 211.238281 170.101562 211.429688 170.25 211.609375 C 170.847656 212.328125 171.191406 212.734375 171.191406 212.734375 L 177 207.875 C 177 207.875 176.691406 207.5 176.148438 206.859375 C 176.011719 206.695312 175.855469 206.523438 175.699219 206.324219 C 175.550781 206.117188 175.386719 205.894531 175.214844 205.660156 C 174.859375 205.191406 174.464844 204.664062 174.03125 204.09375 C 172.371094 201.738281 170.230469 198.542969 168.503906 195.117188 C 166.757812 191.695312 165.363281 188.109375 164.417969 185.386719 C 164.207031 184.695312 164.015625 184.0625 163.84375 183.496094 C 163.753906 183.222656 163.671875 182.957031 163.597656 182.71875 C 163.515625 182.476562 163.449219 182.25 163.40625 182.046875 C 163.199219 181.226562 163.082031 180.757812 163.082031 180.757812 L 155.746094 182.648438 C 155.746094 182.648438 155.878906 183.164062 156.105469 184.070312 Z M 160.042969 131.816406 C 159.851562 132.238281 159.617188 132.753906 159.347656 133.339844 C 159.109375 133.949219 158.84375 134.628906 158.550781 135.371094 C 157.917969 136.839844 157.386719 138.628906 156.722656 140.519531 C 156.460938 141.480469 156.179688 142.476562 155.886719 143.484375 C 155.726562 143.988281 155.621094 144.503906 155.503906 145.023438 C 155.382812 145.539062 155.261719 146.0625 155.140625 146.578125 C 154.222656 150.75 153.667969 155.003906 153.464844 158.207031 C 153.417969 158.605469 153.40625 158.988281 153.402344 159.355469 C 153.386719 159.722656 153.375 160.070312 153.367188 160.394531 C 153.34375 161.046875 153.316406 161.617188 153.300781 162.085938 C 153.285156 162.316406 153.285156 162.527344 153.292969 162.710938 C 153.292969 162.890625 153.296875 163.046875 153.300781 163.171875 C 153.304688 163.417969 153.308594 163.558594 153.308594 163.558594 L 160.878906 163.535156 C 160.878906 163.535156 160.878906 163.414062 160.875 163.191406 C 160.871094 163.078125 160.867188 162.9375 160.867188 162.773438 C 160.859375 162.609375 160.859375 162.417969 160.871094 162.207031 C 160.890625 161.785156 160.910156 161.273438 160.933594 160.6875 C 160.945312 160.390625 160.953125 160.074219 160.964844 159.746094 C 160.96875 159.417969 160.980469 159.070312 161.019531 158.707031 C 161.203125 155.820312 161.710938 151.980469 162.535156 148.222656 C 162.644531 147.753906 162.753906 147.285156 162.863281 146.816406 C 162.964844 146.347656 163.058594 145.878906 163.207031 145.429688 C 163.472656 144.523438 163.726562 143.628906 163.960938 142.753906 C 164.566406 141.058594 165.03125 139.441406 165.609375 138.125 C 165.871094 137.453125 166.109375 136.835938 166.320312 136.289062 C 166.566406 135.761719 166.777344 135.300781 166.953125 134.914062 C 167.292969 134.148438 167.488281 133.710938 167.488281 133.710938 L 160.640625 130.476562 C 160.640625 130.476562 160.421875 130.964844 160.042969 131.816406 Z M 196.445312 94.152344 C 196.03125 94.363281 195.515625 94.605469 194.941406 94.898438 C 194.367188 95.207031 193.71875 95.554688 193.019531 95.929688 C 192.320312 96.316406 191.582031 96.765625 190.78125 97.214844 C 190 97.6875 189.191406 98.21875 188.339844 98.738281 C 187.929688 99.019531 187.507812 99.300781 187.082031 99.59375 C 186.660156 99.882812 186.214844 100.15625 185.800781 100.476562 C 184.957031 101.105469 184.074219 101.699219 183.246094 102.378906 C 179.871094 104.988281 176.734375 107.917969 174.519531 110.273438 C 173.945312 110.835938 173.472656 111.40625 173.039062 111.894531 C 172.605469 112.390625 172.222656 112.816406 171.910156 113.164062 C 171.273438 113.855469 170.953125 114.289062 170.953125 114.289062 L 176.785156 119.121094 C 176.785156 119.121094 177.070312 118.730469 177.652344 118.109375 C 177.933594 117.792969 178.277344 117.40625 178.671875 116.960938 C 179.066406 116.519531 179.484375 115.996094 180.007812 115.492188 C 182.011719 113.363281 184.84375 110.71875 187.886719 108.363281 C 188.628906 107.753906 189.429688 107.222656 190.1875 106.652344 C 190.558594 106.363281 190.964844 106.125 191.34375 105.855469 C 191.722656 105.597656 192.105469 105.339844 192.476562 105.085938 C 193.246094 104.621094 193.96875 104.140625 194.671875 103.71875 C 195.394531 103.3125 196.058594 102.90625 196.6875 102.558594 C 197.316406 102.21875 197.902344 101.90625 198.417969 101.632812 C 198.933594 101.359375 199.398438 101.148438 199.773438 100.960938 C 200.152344 100.773438 200.441406 100.621094 200.644531 100.523438 C 200.851562 100.433594 200.957031 100.386719 200.957031 100.386719 L 197.761719 93.519531 C 197.761719 93.519531 197.640625 93.570312 197.410156 93.675781 C 197.191406 93.789062 196.863281 93.949219 196.445312 94.152344 " fill-opacity="1" fill-rule="nonzero"/></g></svg>