<svg xmlns="http://www.w3.org/2000/svg" width="24" height="24" viewBox="0 0 24 24" fill="none" stroke="currentColor" stroke-width="2" stroke-linecap="round" stroke-linejoin="round">
  <path d="M16 11c1.66 0 3-1.34 3-3s-1.34-3-3-3-3 1.34-3 3 1.34 3 3 3z" />
  <path d="M6 11c1.66 0 3-1.34 3-3S7.66 5 6 5 3 6.34 3 8s1.34 3 3 3z" />
  <path d="M6 13c-2.33 0-7 1.17-7 3.5V20h14v-3.5C13 14.17 8.33 13 6 13zM18 13c-.29 0-.62.02-.98.05 1.16.84 1.98 1.97 1.98 3.45V20h6v-3.5C25 14.17 20.33 13 18 13z" transform="translate(-2 0)"/>
</svg>